<svg width="644" height="32" viewBox="0 0 644 32" fill="none" xmlns="http://www.w3.org/2000/svg">
<g clip-path="url(#clip0)">
<path d="M0 12.4445C0 8.08848 0 5.9105 0.847727 4.24674C1.59341 2.78326 2.78326 1.59341 4.24674 0.847727C5.9105 0 8.08848 0 12.4444 0H631.555C635.911 0 638.089 0 639.753 0.847727C641.217 1.59341 642.407 2.78326 643.152 4.24674C644 5.9105 644 8.08848 644 12.4444V31.1111H0V12.4445Z" fill="#25334D"/>
<g clip-path="url(#clip1)">
<path d="M566.229 16.6239C566.557 16.6239 566.828 16.353 566.828 16.0305V9.54144L566.783 8.58679L567.176 9.05767L568.079 10.0188C568.182 10.1349 568.33 10.1929 568.478 10.1929C568.775 10.1929 569.02 9.98007 569.02 9.6769C569.02 9.51564 568.955 9.39953 568.846 9.28988L566.686 7.20641C566.532 7.0516 566.383 7 566.229 7C566.067 7 565.926 7.0516 565.771 7.20641L563.605 9.28988C563.496 9.39953 563.431 9.51564 563.431 9.6769C563.431 9.98007 563.67 10.1929 563.966 10.1929C564.114 10.1929 564.269 10.1349 564.372 10.0188L565.275 9.05767L565.674 8.58034L565.623 9.54144V16.0305C565.623 16.353 565.893 16.6239 566.229 16.6239ZM562.509 21.7778H569.935C571.334 21.7778 572.056 21.0553 572.056 19.675V13.3343C572.056 11.9539 571.334 11.2314 569.935 11.2314H568.195V12.5151H569.851C570.438 12.5151 570.773 12.8247 570.773 13.4439V19.5589C570.773 20.1781 570.438 20.4877 569.851 20.4877H562.593C562 20.4877 561.672 20.1781 561.672 19.5589V13.4439C561.672 12.8247 562 12.5151 562.593 12.5151H564.269V11.2314H562.509C561.117 11.2314 560.389 11.9474 560.389 13.3343V19.675C560.389 21.0553 561.117 21.7778 562.509 21.7778Z" fill="#B7B7B7"/>
<path d="M593.444 20.2223C593.854 20.2223 594.186 19.8896 594.186 19.5121V15.5072H598.154C598.551 15.5072 598.889 15.1809 598.889 14.7778C598.889 14.3812 598.551 14.0485 598.154 14.0485H594.186V10.0435C594.186 9.65966 593.854 9.33337 593.444 9.33337C593.041 9.33337 592.703 9.65966 592.703 10.0435V14.0485H588.735C588.351 14.0485 588 14.3812 588 14.7778C588 15.1809 588.351 15.5072 588.735 15.5072H592.703V19.5121C592.703 19.8896 593.041 20.2223 593.444 20.2223Z" fill="#B7B7B7"/>
<path d="M617.344 18.6938H618.44V19.6675C618.44 21.0475 619.169 21.7698 620.562 21.7698H627.101C628.493 21.7698 629.222 21.0475 629.222 19.6675V13.0834C629.222 11.7034 628.493 10.9812 627.101 10.9812H626.004V10.0139C626.004 8.63387 625.276 7.91162 623.883 7.91162H617.344C615.944 7.91162 615.222 8.63387 615.222 10.0139V16.5915C615.222 17.978 615.944 18.6938 617.344 18.6938ZM617.428 17.4105C616.834 17.4105 616.505 17.1009 616.505 16.4754V10.13C616.505 9.50444 616.834 9.20135 617.428 9.20135H623.799C624.386 9.20135 624.721 9.50444 624.721 10.13V10.9812H620.562C619.169 10.9812 618.44 11.7034 618.44 13.0834V17.4105H617.428ZM620.645 20.48C620.052 20.48 619.73 20.1705 619.73 19.5514V13.1995C619.73 12.5804 620.052 12.2709 620.645 12.2709H627.017C627.61 12.2709 627.939 12.5804 627.939 13.1995V19.5514C627.939 20.1705 627.61 20.48 627.017 20.48H620.645Z" fill="#B7B7B7"/>
</g>
<g clip-path="url(#clip2)">
<path d="M78.3463 21.3999H89.3928C90.7937 21.3999 91.5233 20.6769 91.5233 19.2952V11.4381C91.5233 10.0565 90.7937 9.33337 89.3928 9.33337H78.3463C76.9517 9.33337 76.2222 10.05 76.2222 11.4381V19.2952C76.2222 20.6769 76.9517 21.3999 78.3463 21.3999ZM78.4302 20.1152C77.8362 20.1152 77.507 19.8053 77.507 19.179V11.5543C77.507 10.928 77.8362 10.6182 78.4302 10.6182H81.3742V20.1152H78.4302ZM89.3088 10.6182C89.9028 10.6182 90.2321 10.928 90.2321 11.5543V19.179C90.2321 19.8053 89.9028 20.1152 89.3088 20.1152H82.5944V10.6182H89.3088ZM80.1088 12.9811C80.3412 12.9811 80.5349 12.781 80.5349 12.5615C80.5349 12.3419 80.3412 12.1483 80.1088 12.1483H78.7853C78.5529 12.1483 78.3592 12.3419 78.3592 12.5615C78.3592 12.781 78.5529 12.9811 78.7853 12.9811H80.1088ZM80.1088 14.7178C80.3412 14.7178 80.5349 14.5241 80.5349 14.2982C80.5349 14.0787 80.3412 13.885 80.1088 13.885H78.7853C78.5529 13.885 78.3592 14.0787 78.3592 14.2982C78.3592 14.5241 78.5529 14.7178 78.7853 14.7178H80.1088ZM80.1088 16.4481C80.3412 16.4481 80.5349 16.2608 80.5349 16.0349C80.5349 15.8154 80.3412 15.6281 80.1088 15.6281H78.7853C78.5529 15.6281 78.3592 15.8154 78.3592 16.0349C78.3592 16.2608 78.5529 16.4481 78.7853 16.4481H80.1088Z" fill="#B7B7B7"/>
<path d="M116.199 20.2952L111.471 15.6711C111.307 15.507 111.222 15.3247 111.222 15.112C111.222 14.8994 111.307 14.7049 111.477 14.5469L116.205 9.92889C116.339 9.79521 116.509 9.72229 116.703 9.72229C117.11 9.72229 117.426 10.0383 117.426 10.4393C117.426 10.6337 117.347 10.8221 117.207 10.9619L112.954 15.106L117.207 19.2622C117.347 19.402 117.426 19.5843 117.426 19.7848C117.426 20.1858 117.11 20.5018 116.703 20.5018C116.509 20.5018 116.339 20.4289 116.199 20.2952Z" fill="#B7B7B7"/>
<path d="M139.556 20.5018C139.757 20.5018 139.921 20.4289 140.061 20.2952L144.788 15.6772C144.952 15.507 145.037 15.3308 145.037 15.112C145.037 14.8994 144.958 14.711 144.788 14.553L140.061 9.92889C139.921 9.79521 139.757 9.72229 139.556 9.72229C139.149 9.72229 138.833 10.0383 138.833 10.4393C138.833 10.6337 138.918 10.8221 139.052 10.9619L143.312 15.1181L139.052 19.2622C138.912 19.4081 138.833 19.5843 138.833 19.7848C138.833 20.1858 139.149 20.5018 139.556 20.5018Z" fill="#5A5A5A"/>
</g>
<g clip-path="url(#clip3)">
<circle cx="20.2222" cy="15.5556" r="4.66667" fill="#ED6A5E"/>
<circle cx="20.2222" cy="15.5556" r="4.27778" stroke="black" stroke-opacity="0.1" stroke-width="0.777778"/>
<circle cx="35.7778" cy="15.5556" r="4.66667" fill="#F4BD50"/>
<circle cx="35.7778" cy="15.5556" r="4.27778" stroke="black" stroke-opacity="0.1" stroke-width="0.777778"/>
<circle cx="51.3333" cy="15.5556" r="4.66667" fill="#61C454"/>
<circle cx="51.3333" cy="15.5556" r="4.27778" stroke="black" stroke-opacity="0.1" stroke-width="0.777778"/>
</g>
<path d="M220.889 21.7778C221.005 21.7778 221.178 21.7388 221.339 21.6478C225.046 19.6141 226.333 18.672 226.333 16.3069V11.4014C226.333 10.6217 226.031 10.3423 225.387 10.0629C224.673 9.75756 222.272 8.9129 221.571 8.6725C221.359 8.60102 221.108 8.55554 220.889 8.55554C220.67 8.55554 220.419 8.61402 220.207 8.6725C219.505 8.87391 217.105 9.76406 216.39 10.0629C215.747 10.3358 215.444 10.6217 215.444 11.4014V16.3069C215.444 18.672 216.738 19.6011 220.432 21.6478C220.599 21.7388 220.773 21.7778 220.889 21.7778ZM221.236 9.86802C222.079 10.2059 223.914 10.8621 224.879 11.2065C225.059 11.278 225.104 11.3754 225.104 11.6093V16.0665C225.104 17.9703 224.158 18.4836 221.256 20.2509C221.075 20.3613 220.985 20.4003 220.895 20.4003V9.79655C220.985 9.79655 221.082 9.81604 221.236 9.86802Z" fill="#B7B7B7"/>
<g clip-path="url(#clip4)">
<path d="M234.111 12.1333C234.111 9.51971 234.111 8.21292 234.62 7.21467C235.067 6.33658 235.781 5.62267 236.659 5.17526C237.657 4.66663 238.964 4.66663 241.578 4.66663H402.422C405.036 4.66663 406.343 4.66663 407.341 5.17526C408.219 5.62267 408.933 6.33658 409.38 7.21467C409.889 8.21292 409.889 9.51971 409.889 12.1333V18.9777C409.889 21.5913 409.889 22.8981 409.38 23.8964C408.933 24.7744 408.219 25.4884 407.341 25.9358C406.343 26.4444 405.036 26.4444 402.422 26.4444H241.578C238.964 26.4444 237.657 26.4444 236.659 25.9358C235.781 25.4884 235.067 24.7744 234.62 23.8964C234.111 22.8981 234.111 21.5913 234.111 18.9777V12.1333Z" fill="#3C5175"/>
<path d="M 2.104 5.92 L 1.312 5.92 L 0 1.952 L 0.664 1.72 L 1.736 5.104 L 2.712 2.056 L 3.488 2.056 L 4.44 5.104 L 5.504 1.72 L 6.144 1.952 L 4.824 5.92 L 4.032 5.92 L 3.072 2.824 L 2.104 5.92 Z M 8.648 5.92 L 7.856 5.92 L 6.544 1.952 L 7.208 1.72 L 8.28 5.104 L 9.256 2.056 L 10.032 2.056 L 10.984 5.104 L 12.048 1.72 L 12.688 1.952 L 11.368 5.92 L 10.576 5.92 L 9.616 2.824 L 8.648 5.92 Z M 15.192 5.92 L 14.4 5.92 L 13.088 1.952 L 13.752 1.72 L 14.824 5.104 L 15.8 2.056 L 16.576 2.056 L 17.528 5.104 L 18.592 1.72 L 19.232 1.952 L 17.912 5.92 L 17.12 5.92 L 16.16 2.824 L 15.192 5.92 Z M 57.448 5.92 L 56.656 5.92 L 55.344 1.952 L 56.008 1.72 L 57.08 5.104 L 58.056 2.056 L 58.832 2.056 L 59.784 5.104 L 60.848 1.72 L 61.488 1.952 L 60.168 5.92 L 59.376 5.92 L 58.416 2.824 L 57.448 5.92 Z M 42.248 5.92 L 41.528 5.92 L 41.528 0 L 42.248 0 L 42.248 2.424 Q 42.472 2.096 42.816 1.88 Q 43.16 1.664 43.624 1.664 A 1.858 1.858 0 0 1 44.029 1.705 Q 44.437 1.797 44.676 2.088 Q 45.006 2.49 45.023 3.137 A 2.701 2.701 0 0 1 45.024 3.208 L 45.024 5.92 L 44.304 5.92 L 44.304 3.288 A 1.57 1.57 0 0 0 44.277 2.989 Q 44.243 2.812 44.164 2.672 A 0.879 0.879 0 0 0 44.096 2.568 A 0.674 0.674 0 0 0 43.603 2.3 A 0.958 0.958 0 0 0 43.512 2.296 A 1.058 1.058 0 0 0 42.975 2.445 A 1.407 1.407 0 0 0 42.812 2.556 Q 42.48 2.816 42.248 3.168 L 42.248 5.92 Z M 29.416 5.92 L 28.696 5.92 L 28.696 1.76 L 29.392 1.76 L 29.392 2.456 Q 29.616 2.12 29.964 1.892 A 1.385 1.385 0 0 1 30.532 1.682 A 1.81 1.81 0 0 1 30.792 1.664 A 1.858 1.858 0 0 1 31.197 1.705 Q 31.605 1.797 31.844 2.088 Q 32.174 2.49 32.191 3.137 A 2.701 2.701 0 0 1 32.192 3.208 L 32.192 5.92 L 31.472 5.92 L 31.472 3.288 A 1.541 1.541 0 0 0 31.445 2.989 Q 31.41 2.812 31.33 2.672 A 0.877 0.877 0 0 0 31.26 2.568 A 0.686 0.686 0 0 0 30.758 2.3 A 0.965 0.965 0 0 0 30.672 2.296 A 1.05 1.05 0 0 0 30.124 2.453 A 1.388 1.388 0 0 0 29.976 2.556 Q 29.648 2.816 29.416 3.168 L 29.416 5.92 Z M 51.768 5.92 L 51.048 5.92 L 51.048 1.76 L 51.744 1.76 L 51.744 2.456 Q 51.968 2.12 52.316 1.892 A 1.385 1.385 0 0 1 52.884 1.682 A 1.81 1.81 0 0 1 53.144 1.664 A 1.858 1.858 0 0 1 53.549 1.705 Q 53.957 1.797 54.196 2.088 Q 54.526 2.49 54.543 3.137 A 2.701 2.701 0 0 1 54.544 3.208 L 54.544 5.92 L 53.824 5.92 L 53.824 3.288 A 1.541 1.541 0 0 0 53.797 2.989 Q 53.762 2.812 53.682 2.672 A 0.877 0.877 0 0 0 53.612 2.568 A 0.686 0.686 0 0 0 53.11 2.3 A 0.965 0.965 0 0 0 53.024 2.296 A 1.05 1.05 0 0 0 52.476 2.453 A 1.388 1.388 0 0 0 52.328 2.556 Q 52 2.816 51.768 3.168 L 51.768 5.92 Z M 37.424 5.584 L 37.728 4.984 A 1.485 1.485 0 0 0 37.979 5.154 Q 38.104 5.222 38.252 5.276 A 1.926 1.926 0 0 0 38.861 5.391 A 2.197 2.197 0 0 0 38.928 5.392 A 2.169 2.169 0 0 0 39.175 5.379 Q 39.429 5.35 39.587 5.255 A 0.619 0.619 0 0 0 39.604 5.244 A 0.596 0.596 0 0 0 39.727 5.141 A 0.404 0.404 0 0 0 39.832 4.864 A 0.57 0.57 0 0 0 39.807 4.692 A 0.497 0.497 0 0 0 39.748 4.568 Q 39.668 4.445 39.459 4.326 A 1.784 1.784 0 0 0 39.44 4.316 A 2.277 2.277 0 0 0 39.28 4.237 Q 39.083 4.147 38.792 4.048 A 3.729 3.729 0 0 1 38.44 3.909 Q 38.271 3.831 38.137 3.744 A 1.547 1.547 0 0 1 37.916 3.572 A 0.906 0.906 0 0 1 37.653 3.092 A 1.344 1.344 0 0 1 37.624 2.808 A 0.97 0.97 0 0 1 37.94 2.087 A 1.397 1.397 0 0 1 38.044 1.996 A 1.421 1.421 0 0 1 38.527 1.752 Q 38.824 1.664 39.208 1.664 A 3.263 3.263 0 0 1 39.564 1.682 Q 39.748 1.703 39.91 1.745 A 2.019 2.019 0 0 1 39.92 1.748 A 3.102 3.102 0 0 1 40.251 1.856 A 2.489 2.489 0 0 1 40.48 1.96 L 40.28 2.552 A 1.962 1.962 0 0 0 39.987 2.411 A 2.415 2.415 0 0 0 39.788 2.344 Q 39.512 2.264 39.176 2.264 Q 38.76 2.264 38.544 2.432 A 0.746 0.746 0 0 0 38.435 2.534 Q 38.379 2.599 38.352 2.669 A 0.362 0.362 0 0 0 38.328 2.8 A 0.394 0.394 0 0 0 38.448 3.084 A 0.567 0.567 0 0 0 38.496 3.128 Q 38.664 3.264 39.152 3.424 A 5.42 5.42 0 0 1 39.557 3.576 Q 40.031 3.777 40.256 4.008 A 1.088 1.088 0 0 1 40.567 4.748 A 1.432 1.432 0 0 1 40.568 4.808 A 1.11 1.11 0 0 1 40.483 5.249 Q 40.372 5.508 40.116 5.692 Q 39.737 5.964 39.141 6.008 A 3.234 3.234 0 0 1 38.904 6.016 Q 38.432 6.016 38.052 5.896 A 2.471 2.471 0 0 1 37.745 5.777 Q 37.586 5.703 37.46 5.611 A 1.459 1.459 0 0 1 37.424 5.584 Z M 24.544 2.176 L 24.544 0 L 25.264 0 L 25.264 4.912 A 0.972 0.972 0 0 0 25.272 5.043 Q 25.299 5.238 25.412 5.308 Q 25.56 5.4 25.736 5.4 L 25.584 5.96 Q 24.824 5.96 24.656 5.352 A 1.559 1.559 0 0 1 24.43 5.604 Q 24.312 5.71 24.164 5.808 A 1.211 1.211 0 0 1 23.763 5.975 Q 23.604 6.011 23.421 6.015 A 2.154 2.154 0 0 1 23.368 6.016 Q 22.856 6.016 22.432 5.752 A 1.815 1.815 0 0 1 21.829 5.129 A 2.21 2.21 0 0 1 21.76 5.004 A 2.203 2.203 0 0 1 21.553 4.369 A 2.978 2.978 0 0 1 21.512 3.864 A 2.715 2.715 0 0 1 21.583 3.231 A 2.237 2.237 0 0 1 21.764 2.736 A 2.183 2.183 0 0 1 22.134 2.209 A 1.935 1.935 0 0 1 22.436 1.952 Q 22.856 1.664 23.36 1.664 A 1.731 1.731 0 0 1 23.702 1.696 A 1.275 1.275 0 0 1 24.076 1.832 A 2.747 2.747 0 0 1 24.282 1.959 Q 24.38 2.026 24.458 2.094 A 1.327 1.327 0 0 1 24.544 2.176 Z M 103.024 7.68 L 102.304 7.68 L 102.304 2.824 Q 102.304 2.663 102.258 2.557 A 0.336 0.336 0 0 0 102.172 2.436 A 0.457 0.457 0 0 0 101.949 2.33 A 0.639 0.639 0 0 0 101.832 2.32 L 101.984 1.76 A 1.402 1.402 0 0 1 102.322 1.798 Q 102.767 1.908 102.904 2.344 Q 102.984 2.224 103.164 2.064 Q 103.344 1.904 103.612 1.784 A 1.356 1.356 0 0 1 103.977 1.681 A 1.751 1.751 0 0 1 104.224 1.664 Q 104.704 1.664 105.124 1.916 A 1.786 1.786 0 0 1 105.698 2.473 A 2.197 2.197 0 0 1 105.8 2.644 Q 106.056 3.12 106.056 3.8 A 2.926 2.926 0 0 1 106 4.386 A 2.248 2.248 0 0 1 105.8 4.964 A 2.228 2.228 0 0 1 105.485 5.431 A 1.842 1.842 0 0 1 105.132 5.74 Q 104.72 6.016 104.24 6.016 Q 103.872 6.016 103.552 5.868 A 2.428 2.428 0 0 1 103.279 5.721 Q 103.135 5.631 103.024 5.528 L 103.024 7.68 Z M 107.768 7.68 L 107.048 7.68 L 107.048 2.824 Q 107.048 2.663 107.002 2.557 A 0.336 0.336 0 0 0 106.916 2.436 A 0.457 0.457 0 0 0 106.693 2.33 A 0.639 0.639 0 0 0 106.576 2.32 L 106.728 1.76 A 1.402 1.402 0 0 1 107.066 1.798 Q 107.511 1.908 107.648 2.344 Q 107.728 2.224 107.908 2.064 Q 108.088 1.904 108.356 1.784 A 1.356 1.356 0 0 1 108.721 1.681 A 1.751 1.751 0 0 1 108.968 1.664 Q 109.448 1.664 109.868 1.916 A 1.786 1.786 0 0 1 110.442 2.473 A 2.197 2.197 0 0 1 110.544 2.644 Q 110.8 3.12 110.8 3.8 A 2.926 2.926 0 0 1 110.744 4.386 A 2.248 2.248 0 0 1 110.544 4.964 A 2.228 2.228 0 0 1 110.229 5.431 A 1.842 1.842 0 0 1 109.876 5.74 Q 109.464 6.016 108.984 6.016 Q 108.616 6.016 108.296 5.868 A 2.428 2.428 0 0 1 108.023 5.721 Q 107.879 5.631 107.768 5.528 L 107.768 7.68 Z M 67.272 5.576 L 67.272 5.92 L 66.6 5.92 L 66.6 0 L 67.32 0 L 67.32 2.192 Q 67.48 2.008 67.788 1.836 A 1.327 1.327 0 0 1 68.206 1.69 A 1.794 1.794 0 0 1 68.52 1.664 Q 69 1.664 69.42 1.916 A 1.786 1.786 0 0 1 69.994 2.473 A 2.197 2.197 0 0 1 70.096 2.644 Q 70.352 3.12 70.352 3.8 A 2.665 2.665 0 0 1 70.297 4.351 A 2.22 2.22 0 0 1 70.192 4.704 A 2.349 2.349 0 0 1 69.939 5.184 A 2.039 2.039 0 0 1 69.764 5.404 Q 69.496 5.696 69.16 5.856 Q 68.824 6.016 68.472 6.016 Q 68.112 6.016 67.796 5.884 A 2.422 2.422 0 0 1 67.532 5.755 Q 67.386 5.672 67.272 5.576 Z M 36.8 4.136 L 33.888 4.136 A 1.927 1.927 0 0 0 33.979 4.538 Q 34.086 4.843 34.296 5.048 Q 34.632 5.376 35.184 5.376 Q 35.544 5.376 35.832 5.3 Q 36.12 5.224 36.384 5.104 L 36.552 5.72 A 3.262 3.262 0 0 1 36.205 5.85 A 4.149 4.149 0 0 1 35.904 5.932 Q 35.544 6.016 35.096 6.016 A 2.265 2.265 0 0 1 34.476 5.936 A 1.689 1.689 0 0 1 33.676 5.444 A 1.882 1.882 0 0 1 33.26 4.681 Q 33.179 4.401 33.159 4.068 A 3.77 3.77 0 0 1 33.152 3.84 A 2.829 2.829 0 0 1 33.219 3.214 A 2.307 2.307 0 0 1 33.388 2.724 A 1.971 1.971 0 0 1 33.789 2.157 A 1.831 1.831 0 0 1 34.048 1.948 Q 34.472 1.664 35.032 1.664 Q 35.632 1.664 36.028 1.924 Q 36.424 2.184 36.624 2.624 Q 36.824 3.064 36.824 3.592 A 6.016 6.016 0 0 1 36.801 4.128 A 5.421 5.421 0 0 1 36.8 4.136 Z M 65.616 4.136 L 62.704 4.136 A 1.927 1.927 0 0 0 62.795 4.538 Q 62.902 4.843 63.112 5.048 Q 63.448 5.376 64 5.376 Q 64.36 5.376 64.648 5.3 Q 64.936 5.224 65.2 5.104 L 65.368 5.72 A 3.262 3.262 0 0 1 65.021 5.85 A 4.149 4.149 0 0 1 64.72 5.932 Q 64.36 6.016 63.912 6.016 A 2.265 2.265 0 0 1 63.292 5.936 A 1.689 1.689 0 0 1 62.492 5.444 A 1.882 1.882 0 0 1 62.076 4.681 Q 61.995 4.401 61.975 4.068 A 3.77 3.77 0 0 1 61.968 3.84 A 2.829 2.829 0 0 1 62.035 3.214 A 2.307 2.307 0 0 1 62.204 2.724 A 1.971 1.971 0 0 1 62.605 2.157 A 1.831 1.831 0 0 1 62.864 1.948 Q 63.288 1.664 63.848 1.664 Q 64.448 1.664 64.844 1.924 Q 65.24 2.184 65.44 2.624 Q 65.64 3.064 65.64 3.592 A 6.016 6.016 0 0 1 65.617 4.128 A 5.421 5.421 0 0 1 65.616 4.136 Z M 80.384 4.136 L 77.472 4.136 A 1.927 1.927 0 0 0 77.563 4.538 Q 77.67 4.843 77.88 5.048 Q 78.216 5.376 78.768 5.376 Q 79.128 5.376 79.416 5.3 Q 79.704 5.224 79.968 5.104 L 80.136 5.72 A 3.262 3.262 0 0 1 79.789 5.85 A 4.149 4.149 0 0 1 79.488 5.932 Q 79.128 6.016 78.68 6.016 A 2.265 2.265 0 0 1 78.06 5.936 A 1.689 1.689 0 0 1 77.26 5.444 A 1.882 1.882 0 0 1 76.844 4.681 Q 76.763 4.401 76.743 4.068 A 3.77 3.77 0 0 1 76.736 3.84 A 2.829 2.829 0 0 1 76.803 3.214 A 2.307 2.307 0 0 1 76.972 2.724 A 1.971 1.971 0 0 1 77.373 2.157 A 1.831 1.831 0 0 1 77.632 1.948 Q 78.056 1.664 78.616 1.664 Q 79.216 1.664 79.612 1.924 Q 80.008 2.184 80.208 2.624 Q 80.408 3.064 80.408 3.592 A 6.016 6.016 0 0 1 80.385 4.128 A 5.421 5.421 0 0 1 80.384 4.136 Z M 91.384 4.136 L 88.472 4.136 A 1.927 1.927 0 0 0 88.563 4.538 Q 88.67 4.843 88.88 5.048 Q 89.216 5.376 89.768 5.376 Q 90.128 5.376 90.416 5.3 Q 90.704 5.224 90.968 5.104 L 91.136 5.72 A 3.262 3.262 0 0 1 90.789 5.85 A 4.149 4.149 0 0 1 90.488 5.932 Q 90.128 6.016 89.68 6.016 A 2.265 2.265 0 0 1 89.06 5.936 A 1.689 1.689 0 0 1 88.26 5.444 A 1.882 1.882 0 0 1 87.844 4.681 Q 87.763 4.401 87.743 4.068 A 3.77 3.77 0 0 1 87.736 3.84 A 2.829 2.829 0 0 1 87.803 3.214 A 2.307 2.307 0 0 1 87.972 2.724 A 1.971 1.971 0 0 1 88.373 2.157 A 1.831 1.831 0 0 1 88.632 1.948 Q 89.056 1.664 89.616 1.664 Q 90.216 1.664 90.612 1.924 Q 91.008 2.184 91.208 2.624 Q 91.408 3.064 91.408 3.592 A 6.016 6.016 0 0 1 91.385 4.128 A 5.421 5.421 0 0 1 91.384 4.136 Z M 74.776 5.92 L 74.024 5.92 L 72.352 1.952 L 73.008 1.68 L 74.424 5.104 L 75.84 1.68 L 76.456 1.952 L 74.776 5.92 Z M 87.192 1.912 L 86.976 2.52 A 2.434 2.434 0 0 0 86.744 2.418 A 1.874 1.874 0 0 0 86.548 2.356 A 1.643 1.643 0 0 0 86.305 2.314 A 2.108 2.108 0 0 0 86.096 2.304 A 1.271 1.271 0 0 0 85.516 2.435 A 1.291 1.291 0 0 0 85.156 2.708 Q 84.795 3.091 84.777 3.752 A 2.582 2.582 0 0 0 84.776 3.824 A 2.015 2.015 0 0 0 84.832 4.309 A 1.716 1.716 0 0 0 84.936 4.608 A 1.485 1.485 0 0 0 85.169 4.974 A 1.302 1.302 0 0 0 85.38 5.168 Q 85.664 5.376 86.048 5.376 A 2.274 2.274 0 0 0 86.28 5.365 Q 86.44 5.348 86.568 5.308 Q 86.783 5.24 87.03 5.113 A 4.502 4.502 0 0 0 87.032 5.112 L 87.256 5.72 A 2.283 2.283 0 0 1 86.887 5.881 A 2.743 2.743 0 0 1 86.7 5.936 Q 86.397 6.015 86.012 6.016 A 3.809 3.809 0 0 1 86 6.016 A 2.144 2.144 0 0 1 85.437 5.945 A 1.766 1.766 0 0 1 84.964 5.74 Q 84.52 5.464 84.28 4.972 A 2.349 2.349 0 0 1 84.069 4.267 A 3.042 3.042 0 0 1 84.04 3.84 A 2.563 2.563 0 0 1 84.145 3.097 A 2.304 2.304 0 0 1 84.284 2.744 Q 84.528 2.248 84.984 1.956 A 1.845 1.845 0 0 1 85.757 1.682 A 2.369 2.369 0 0 1 86.056 1.664 Q 86.408 1.664 86.676 1.728 Q 86.944 1.792 87.192 1.912 Z M 100.184 2.096 L 100.184 1.76 L 100.84 1.76 L 100.84 4.912 A 0.972 0.972 0 0 0 100.848 5.043 Q 100.875 5.238 100.988 5.308 Q 101.136 5.4 101.312 5.4 L 101.16 5.96 A 1.418 1.418 0 0 1 100.819 5.922 Q 100.368 5.81 100.24 5.366 A 1.087 1.087 0 0 1 100.232 5.336 A 1.705 1.705 0 0 1 99.983 5.61 A 2.28 2.28 0 0 1 99.732 5.804 A 1.194 1.194 0 0 1 99.336 5.972 Q 99.174 6.01 98.986 6.015 A 2.176 2.176 0 0 1 98.928 6.016 Q 98.408 6.016 97.984 5.752 A 1.836 1.836 0 0 1 97.391 5.15 A 2.234 2.234 0 0 1 97.308 5.004 A 2.178 2.178 0 0 1 97.098 4.369 A 2.932 2.932 0 0 1 97.056 3.864 Q 97.056 3.24 97.308 2.744 Q 97.56 2.248 98.004 1.956 A 1.784 1.784 0 0 1 98.9 1.667 A 2.191 2.191 0 0 1 99.024 1.664 A 1.807 1.807 0 0 1 99.407 1.703 A 1.496 1.496 0 0 1 99.676 1.788 A 2.08 2.08 0 0 1 100.019 1.971 A 1.768 1.768 0 0 1 100.184 2.096 Z M 92.328 4.616 L 92.328 0 L 93.048 0 L 93.048 4.544 A 1.652 1.652 0 0 0 93.063 4.775 Q 93.1 5.036 93.228 5.184 A 0.589 0.589 0 0 0 93.595 5.382 A 0.858 0.858 0 0 0 93.728 5.392 Q 93.88 5.392 94.028 5.356 Q 94.155 5.325 94.249 5.286 A 0.955 0.955 0 0 0 94.28 5.272 L 94.456 5.856 Q 94.344 5.906 94.191 5.946 A 2.798 2.798 0 0 1 94.1 5.968 A 1.905 1.905 0 0 1 93.848 6.007 A 2.441 2.441 0 0 1 93.632 6.016 A 1.669 1.669 0 0 1 93.241 5.972 A 1.404 1.404 0 0 1 92.968 5.876 A 1.015 1.015 0 0 1 92.542 5.495 A 1.269 1.269 0 0 1 92.5 5.424 A 1.26 1.26 0 0 1 92.382 5.116 Q 92.347 4.971 92.334 4.801 A 2.568 2.568 0 0 1 92.328 4.616 Z M 82.088 5.92 L 81.368 5.92 L 81.368 1.76 L 82.064 1.76 L 82.064 2.664 Q 82.168 2.4 82.344 2.172 Q 82.52 1.944 82.784 1.804 A 1.185 1.185 0 0 1 83.158 1.682 A 1.557 1.557 0 0 1 83.4 1.664 Q 83.52 1.664 83.64 1.676 A 1.518 1.518 0 0 1 83.724 1.687 Q 83.764 1.693 83.799 1.701 A 0.705 0.705 0 0 1 83.84 1.712 L 83.624 2.456 A 0.781 0.781 0 0 0 83.452 2.407 Q 83.365 2.392 83.264 2.392 A 1.037 1.037 0 0 0 82.734 2.54 A 1.249 1.249 0 0 0 82.7 2.56 A 1.072 1.072 0 0 0 82.422 2.816 Q 82.333 2.932 82.26 3.08 A 1.546 1.546 0 0 0 82.142 3.425 Q 82.105 3.591 82.094 3.786 A 3.127 3.127 0 0 0 82.088 3.976 L 82.088 5.92 Z M 47.325 5.909 A 2.177 2.177 0 0 0 48.016 6.016 Q 48.608 6.016 49.076 5.744 Q 49.544 5.472 49.816 4.98 Q 50.088 4.488 50.088 3.824 A 2.763 2.763 0 0 0 50.049 3.351 A 2.064 2.064 0 0 0 49.812 2.676 Q 49.536 2.192 49.068 1.928 Q 48.6 1.664 48.016 1.664 Q 47.432 1.664 46.96 1.928 Q 46.488 2.192 46.216 2.68 A 2.082 2.082 0 0 0 45.996 3.287 A 2.8 2.8 0 0 0 45.944 3.84 A 2.786 2.786 0 0 0 45.965 4.188 A 2.196 2.196 0 0 0 46.212 4.972 Q 46.48 5.464 46.952 5.74 A 1.965 1.965 0 0 0 47.325 5.909 Z M 27.416 5.92 L 26.696 5.92 L 26.696 1.76 L 27.416 1.76 L 27.416 5.92 Z M 48.016 5.376 A 1.499 1.499 0 0 0 48.434 5.321 A 1.12 1.12 0 0 0 49 4.948 Q 49.352 4.52 49.352 3.84 A 1.71 1.71 0 0 0 49.254 3.257 A 1.601 1.601 0 0 0 49.176 3.076 A 1.536 1.536 0 0 0 48.842 2.631 A 1.454 1.454 0 0 0 48.7 2.516 Q 48.4 2.304 48.016 2.304 A 1.54 1.54 0 0 0 47.598 2.358 A 1.123 1.123 0 0 0 47.032 2.72 A 1.43 1.43 0 0 0 46.738 3.31 Q 46.68 3.545 46.68 3.824 Q 46.68 4.24 46.856 4.596 A 1.555 1.555 0 0 0 47.138 4.999 A 1.41 1.41 0 0 0 47.332 5.164 Q 47.632 5.376 48.016 5.376 Z M 100.12 4.856 L 100.12 2.624 Q 99.904 2.472 99.644 2.38 Q 99.384 2.288 99.096 2.288 A 1.274 1.274 0 0 0 98.698 2.348 A 1.122 1.122 0 0 0 98.42 2.484 A 1.304 1.304 0 0 0 98.018 2.918 A 1.597 1.597 0 0 0 97.96 3.028 Q 97.792 3.376 97.792 3.84 Q 97.792 4.288 97.96 4.636 A 1.408 1.408 0 0 0 98.208 5 A 1.256 1.256 0 0 0 98.424 5.18 Q 98.72 5.376 99.088 5.376 Q 99.392 5.376 99.664 5.228 A 1.556 1.556 0 0 0 100.042 4.944 A 1.446 1.446 0 0 0 100.12 4.856 Z M 67.32 2.832 L 67.32 5.056 A 1.439 1.439 0 0 0 67.61 5.231 A 1.744 1.744 0 0 0 67.752 5.288 A 1.557 1.557 0 0 0 68.245 5.376 A 1.764 1.764 0 0 0 68.28 5.376 A 1.359 1.359 0 0 0 68.681 5.319 A 1.18 1.18 0 0 0 68.972 5.184 A 1.276 1.276 0 0 0 69.384 4.751 A 1.572 1.572 0 0 0 69.444 4.64 A 1.669 1.669 0 0 0 69.592 4.156 A 2.198 2.198 0 0 0 69.616 3.824 Q 69.616 3.361 69.456 3.025 A 1.388 1.388 0 0 0 69.444 3 Q 69.272 2.656 68.988 2.472 Q 68.704 2.288 68.36 2.288 A 1.179 1.179 0 0 0 67.91 2.373 A 1.124 1.124 0 0 0 67.74 2.46 A 1.884 1.884 0 0 0 67.538 2.604 Q 67.439 2.686 67.366 2.773 A 1.035 1.035 0 0 0 67.32 2.832 Z M 103.024 2.832 L 103.024 4.88 Q 103.232 5.096 103.504 5.236 Q 103.776 5.376 104.096 5.376 Q 104.64 5.376 104.98 4.948 A 1.503 1.503 0 0 0 105.259 4.364 Q 105.312 4.148 105.319 3.897 A 2.764 2.764 0 0 0 105.32 3.824 Q 105.32 3.361 105.16 3.025 A 1.388 1.388 0 0 0 105.148 3 Q 104.976 2.656 104.692 2.472 Q 104.408 2.288 104.064 2.288 A 1.179 1.179 0 0 0 103.614 2.373 A 1.124 1.124 0 0 0 103.444 2.46 A 1.884 1.884 0 0 0 103.242 2.604 Q 103.143 2.686 103.07 2.773 A 1.035 1.035 0 0 0 103.024 2.832 Z M 107.768 2.832 L 107.768 4.88 Q 107.976 5.096 108.248 5.236 Q 108.52 5.376 108.84 5.376 Q 109.384 5.376 109.724 4.948 A 1.503 1.503 0 0 0 110.003 4.364 Q 110.056 4.148 110.063 3.897 A 2.764 2.764 0 0 0 110.064 3.824 Q 110.064 3.361 109.904 3.025 A 1.388 1.388 0 0 0 109.892 3 Q 109.72 2.656 109.436 2.472 Q 109.152 2.288 108.808 2.288 A 1.179 1.179 0 0 0 108.358 2.373 A 1.124 1.124 0 0 0 108.188 2.46 A 1.884 1.884 0 0 0 107.986 2.604 Q 107.887 2.686 107.814 2.773 A 1.035 1.035 0 0 0 107.768 2.832 Z M 24.544 4.872 L 24.544 2.808 Q 24.407 2.635 24.174 2.485 A 2.251 2.251 0 0 0 24.12 2.452 Q 23.848 2.288 23.52 2.288 A 1.196 1.196 0 0 0 23.124 2.352 A 1.071 1.071 0 0 0 22.848 2.496 A 1.335 1.335 0 0 0 22.434 2.988 A 1.594 1.594 0 0 0 22.404 3.052 A 1.775 1.775 0 0 0 22.265 3.561 A 2.249 2.249 0 0 0 22.248 3.84 A 1.981 1.981 0 0 0 22.295 4.282 A 1.626 1.626 0 0 0 22.416 4.628 A 1.456 1.456 0 0 0 22.659 4.989 A 1.29 1.29 0 0 0 22.876 5.176 Q 23.168 5.376 23.528 5.376 Q 23.824 5.376 24.092 5.236 Q 24.36 5.096 24.544 4.872 Z M 33.88 3.552 L 36.16 3.552 A 1.948 1.948 0 0 0 36.128 3.185 Q 36.088 2.978 36 2.817 A 0.994 0.994 0 0 0 35.856 2.616 A 0.999 0.999 0 0 0 35.299 2.314 A 1.472 1.472 0 0 0 35.016 2.288 Q 34.552 2.288 34.248 2.612 A 1.213 1.213 0 0 0 34.013 2.987 Q 33.913 3.23 33.88 3.552 Z M 62.696 3.552 L 64.976 3.552 A 1.948 1.948 0 0 0 64.944 3.185 Q 64.904 2.978 64.816 2.817 A 0.994 0.994 0 0 0 64.672 2.616 A 0.999 0.999 0 0 0 64.115 2.314 A 1.472 1.472 0 0 0 63.832 2.288 Q 63.368 2.288 63.064 2.612 A 1.213 1.213 0 0 0 62.829 2.987 Q 62.729 3.23 62.696 3.552 Z M 77.464 3.552 L 79.744 3.552 A 1.948 1.948 0 0 0 79.712 3.185 Q 79.672 2.978 79.584 2.817 A 0.994 0.994 0 0 0 79.44 2.616 A 0.999 0.999 0 0 0 78.883 2.314 A 1.472 1.472 0 0 0 78.6 2.288 Q 78.136 2.288 77.832 2.612 A 1.213 1.213 0 0 0 77.597 2.987 Q 77.497 3.23 77.464 3.552 Z M 88.464 3.552 L 90.744 3.552 A 1.948 1.948 0 0 0 90.712 3.185 Q 90.672 2.978 90.584 2.817 A 0.994 0.994 0 0 0 90.44 2.616 A 0.999 0.999 0 0 0 89.883 2.314 A 1.472 1.472 0 0 0 89.6 2.288 Q 89.136 2.288 88.832 2.612 A 1.213 1.213 0 0 0 88.597 2.987 Q 88.498 3.23 88.464 3.552 Z M 19.781 5.861 A 0.513 0.513 0 0 0 20.152 6.016 A 0.688 0.688 0 0 0 20.202 6.014 A 0.517 0.517 0 0 0 20.536 5.868 Q 20.688 5.72 20.688 5.48 A 0.498 0.498 0 0 0 20.642 5.266 A 0.556 0.556 0 0 0 20.524 5.104 A 0.678 0.678 0 0 0 20.482 5.067 A 0.506 0.506 0 0 0 20.152 4.944 A 0.705 0.705 0 0 0 20.004 4.959 A 0.478 0.478 0 0 0 19.76 5.088 A 0.474 0.474 0 0 0 19.635 5.315 A 0.69 0.69 0 0 0 19.616 5.48 Q 19.616 5.696 19.776 5.856 A 0.67 0.67 0 0 0 19.781 5.861 Z M 71.341 5.861 A 0.513 0.513 0 0 0 71.712 6.016 A 0.688 0.688 0 0 0 71.762 6.014 A 0.517 0.517 0 0 0 72.096 5.868 Q 72.248 5.72 72.248 5.48 A 0.498 0.498 0 0 0 72.202 5.266 A 0.556 0.556 0 0 0 72.084 5.104 A 0.678 0.678 0 0 0 72.042 5.067 A 0.506 0.506 0 0 0 71.712 4.944 A 0.705 0.705 0 0 0 71.564 4.959 A 0.478 0.478 0 0 0 71.32 5.088 A 0.474 0.474 0 0 0 71.195 5.315 A 0.69 0.69 0 0 0 71.176 5.48 Q 71.176 5.696 71.336 5.856 A 0.67 0.67 0 0 0 71.341 5.861 Z M 95.325 5.861 A 0.513 0.513 0 0 0 95.696 6.016 A 0.688 0.688 0 0 0 95.746 6.014 A 0.517 0.517 0 0 0 96.08 5.868 Q 96.232 5.72 96.232 5.48 A 0.498 0.498 0 0 0 96.186 5.266 A 0.556 0.556 0 0 0 96.068 5.104 A 0.678 0.678 0 0 0 96.026 5.067 A 0.506 0.506 0 0 0 95.696 4.944 A 0.705 0.705 0 0 0 95.548 4.959 A 0.478 0.478 0 0 0 95.304 5.088 A 0.474 0.474 0 0 0 95.179 5.315 A 0.69 0.69 0 0 0 95.16 5.48 Q 95.16 5.696 95.32 5.856 A 0.67 0.67 0 0 0 95.325 5.861 Z M 26.707 0.903 A 0.478 0.478 0 0 0 27.056 1.048 A 0.654 0.654 0 0 0 27.176 1.038 A 0.452 0.452 0 0 0 27.424 0.908 A 0.462 0.462 0 0 0 27.538 0.711 A 0.601 0.601 0 0 0 27.56 0.544 A 0.583 0.583 0 0 0 27.56 0.538 A 0.485 0.485 0 0 0 27.412 0.188 A 0.596 0.596 0 0 0 27.407 0.183 A 0.485 0.485 0 0 0 27.056 0.04 A 0.661 0.661 0 0 0 26.924 0.053 A 0.453 0.453 0 0 0 26.688 0.176 A 0.447 0.447 0 0 0 26.57 0.387 A 0.639 0.639 0 0 0 26.552 0.544 A 0.479 0.479 0 0 0 26.591 0.737 A 0.531 0.531 0 0 0 26.7 0.896 A 0.598 0.598 0 0 0 26.707 0.903 Z" fill="white"/>
<g clip-path="url(#clip5)">
<path d="M400.423 15.3474C400.556 15.3474 400.66 15.3064 400.742 15.2198L402.611 13.3376C402.711 13.2374 402.757 13.128 402.757 13.0004C402.757 12.8774 402.707 12.7589 402.611 12.6677L400.742 10.7673C400.66 10.6762 400.556 10.6306 400.423 10.6306C400.177 10.6306 399.981 10.8357 399.981 11.0863C399.981 11.2094 400.027 11.3097 400.104 11.3962L401.194 12.4626C400.979 12.4307 400.761 12.4125 400.542 12.4125C398.286 12.4125 396.481 14.2172 396.481 16.4776C396.481 18.738 398.3 20.5564 400.556 20.5564C402.816 20.5564 404.63 18.738 404.63 16.4776C404.63 16.2042 404.438 16.0082 404.165 16.0082C403.901 16.0082 403.723 16.2042 403.723 16.4776C403.723 18.2367 402.315 19.6495 400.556 19.6495C398.801 19.6495 397.388 18.2367 397.388 16.4776C397.388 14.7048 398.787 13.3012 400.542 13.3012C400.838 13.3012 401.112 13.324 401.353 13.365L400.109 14.5955C400.027 14.6775 399.981 14.7778 399.981 14.9008C399.981 15.1514 400.177 15.3474 400.423 15.3474Z" fill="#E3E3E3"/>
</g>
<path d="M248 10.1666C246.392 10.1666 245.083 11.475 245.083 13.0833V14.8333H244.5C243.857 14.8333 243.333 15.3565 243.333 16V20.6666C243.333 21.31 243.857 21.8333 244.5 21.8333H251.5C252.143 21.8333 252.667 21.31 252.667 20.6666V16C252.667 15.3565 252.143 14.8333 251.5 14.8333H250.917V13.0833C250.917 11.475 249.608 10.1666 248 10.1666ZM251.5 16L251.501 20.6666H244.5V16H251.5ZM246.25 14.8333V13.0833C246.25 12.1185 247.035 11.3333 248 11.3333C248.965 11.3333 249.75 12.1185 249.75 13.0833V14.8333H246.25Z" fill="white"/>
</g>
</g>
<defs>
<clipPath id="clip0">
<rect width="644" height="31.1111" fill="white"/>
</clipPath>
<clipPath id="clip1">
<rect width="74.6667" height="18.6667" fill="white" transform="translate(556.889 5.44446)"/>
</clipPath>
<clipPath id="clip2">
<rect width="76.2222" height="18.6667" fill="white" transform="translate(74.6666 5.44446)"/>
</clipPath>
<clipPath id="clip3">
<rect width="40.4444" height="9.33333" fill="white" transform="translate(15.5555 10.8889)"/>
</clipPath>
<clipPath id="clip4">
<rect width="175.778" height="21.7778" fill="white" transform="translate(234.111 4.66663)"/>
</clipPath>
<clipPath id="clip5">
<rect width="10.1111" height="10.8889" fill="white" transform="translate(395.5 10.1111)"/>
</clipPath>
</defs>
</svg>
