<?xml version="1.0" encoding="UTF-8"?>
<svg version="1.1" xmlns="http://www.w3.org/2000/svg" width="76" height="76">
<path d="M0 0 C25.08 0 50.16 0 76 0 C76 25.08 76 50.16 76 76 C50.92 76 25.84 76 0 76 C0 50.92 0 25.84 0 0 Z " fill="#573E7B" transform="translate(0,0)"/>
<path d="M0 0 C4.640625 -0.061875 9.28125 -0.12375 14.0625 -0.1875 C16.23791382 -0.22846802 16.23791382 -0.22846802 18.45727539 -0.27026367 C32.26726734 -0.3594594 32.26726734 -0.3594594 37.875 4.6875 C39.51382143 8.05618849 40.1418873 11.25118814 40 15 C38.6875 17.8125 38.6875 17.8125 37 20 C36.34 20.99 35.68 21.98 35 23 C35.78375 23.5775 36.5675 24.155 37.375 24.75 C41.26315524 28.08270449 41.87163265 29.69493189 42.375 34.8125 C42.21089408 39.21874392 41.12114408 42.80532111 38 46 C30.28082479 50.73463581 22.14409778 50.48296298 13.375 50.25 C6.754375 50.12625 6.754375 50.12625 0 50 C0 33.5 0 17 0 0 Z " fill="#F8F4F9" transform="translate(20,13)"/>
<path d="M0 0 C2.58396679 -0.08112454 5.16537568 -0.14054748 7.75 -0.1875 C8.47960938 -0.21263672 9.20921875 -0.23777344 9.9609375 -0.26367188 C13.20380563 -0.3078928 15.58381469 -0.21625955 18.48828125 1.29296875 C20 3 20 3 20.4375 6.5 C20 10 20 10 18.72338867 11.70043945 C16.62254618 13.28462766 15.59280141 13.35171733 12.98828125 13.29296875 C12.23095703 13.28330078 11.47363281 13.27363281 10.69335938 13.26367188 C9.51483398 13.2259668 9.51483398 13.2259668 8.3125 13.1875 C7.11657227 13.16719727 7.11657227 13.16719727 5.89648438 13.14648438 C3.93070033 13.11117089 1.96526418 13.05736447 0 13 C0 8.71 0 4.42 0 0 Z " fill="#584578" transform="translate(31,41)"/>
<path d="M0 0 C2.43816585 -0.0809723 4.87364384 -0.14046972 7.3125 -0.1875 C8.34793945 -0.22520508 8.34793945 -0.22520508 9.40429688 -0.26367188 C14.51242349 -0.3377027 14.51242349 -0.3377027 16.95703125 1.35546875 C18.45708786 3.72072654 18.41145137 5.25699085 18 8 C16.95703125 9.64453125 16.95703125 9.64453125 15 11 C12.35003674 11.2172101 9.94923442 11.28351554 7.3125 11.1875 C6.2596582 11.16719727 6.2596582 11.16719727 5.18554688 11.14648438 C3.45670171 11.11120182 1.72825235 11.05739583 0 11 C0 7.37 0 3.74 0 0 Z " fill="#544676" transform="translate(31,22)"/>
<path d="M0 0 C11.22 0 22.44 0 34 0 C34.495 1.98 34.495 1.98 35 4 C34.14277344 3.68289062 33.28554688 3.36578125 32.40234375 3.0390625 C26.29227438 1.29332839 19.86857058 1.52779727 13.5625 1.375 C12.25861328 1.33632812 10.95472656 1.29765625 9.61132812 1.2578125 C6.40769001 1.16393299 3.20405168 1.07824846 0 1 C0 0.67 0 0.34 0 0 Z " fill="#53446F" transform="translate(21,12)"/>
<path d="M0 0 C4.62 0 9.24 0 14 0 C13.67 0.99 13.34 1.98 13 3 C8.71 2.67 4.42 2.34 0 2 C0 1.34 0 0.68 0 0 Z " fill="#56406D" transform="translate(32,41)"/>
<path d="M0 0 C0.66 0.33 1.32 0.66 2 1 C2 5.62 2 10.24 2 15 C1.34 14.67 0.68 14.34 0 14 C-0.44921875 11.09375 -0.44921875 11.09375 -0.6875 7.5 C-0.77386719 6.3140625 -0.86023437 5.128125 -0.94921875 3.90625 C-0.96597656 2.9471875 -0.98273437 1.988125 -1 1 C-0.67 0.67 -0.34 0.34 0 0 Z " fill="#543F6D" transform="translate(62,41)"/>
<path d="M0 0 C0.99 0 1.98 0 3 0 C2.34 1.98 1.68 3.96 1 6 C-0.32 5.34 -1.64 4.68 -3 4 C-1.6875 2 -1.6875 2 0 0 Z " fill="#5A4F70" transform="translate(57,32)"/>
</svg>
