<?xml version="1.0" encoding="UTF-8"?>
<svg version="1.1" xmlns="http://www.w3.org/2000/svg" width="76" height="76">
<path d="M0 0 C25.08 0 50.16 0 76 0 C76 25.08 76 50.16 76 76 C50.92 76 25.84 76 0 76 C0 50.92 0 25.84 0 0 Z " fill="#F6F5F3" transform="translate(0,0)"/>
<path d="M0 0 C17.16 0 34.32 0 52 0 C47.93852017 2.03073991 46.52906991 2.21579985 42.16796875 2.08984375 C41.03939453 2.06986328 39.91082031 2.04988281 38.74804688 2.02929688 C36.38595554 1.9683982 34.02396766 1.90333534 31.66210938 1.83398438 C25.26251694 1.7283565 20.63413746 1.86468501 15 5 C14.01 5.495 14.01 5.495 13 6 C12.90736239 14.29269378 12.83626742 22.58517177 12.79275131 30.87825489 C12.77186675 34.72899957 12.74353427 38.57939055 12.69824219 42.42993164 C12.65481387 46.14522978 12.63086944 49.86018749 12.62049103 53.57571983 C12.61309409 54.99395801 12.59864948 56.41217733 12.57707977 57.83027077 C12.54809198 59.81480397 12.5463665 61.79967898 12.54589844 63.78442383 C12.53701599 64.91471512 12.52813354 66.04500641 12.51898193 67.20954895 C12.73781039 70.10230355 12.73781039 70.10230355 14.88096619 71.84616089 C21.10217306 75.23368201 28.82489554 74.1839571 35.6875 74.1875 C36.91662109 74.19974609 38.14574219 74.21199219 39.41210938 74.22460938 C46.36015912 74.23572625 53.33882671 74.2192375 60 72 C62.27871506 70.14914055 62.27871506 70.14914055 62.24050903 67.2918396 C62.23606781 66.14156281 62.23162659 64.99128601 62.22705078 63.80615234 C62.22682419 61.85435562 62.22682419 61.85435562 62.22659302 59.86312866 C62.21637893 58.43739673 62.20594692 57.01166635 62.1953125 55.5859375 C62.19158295 54.13148187 62.1887357 52.67702373 62.18673706 51.2225647 C62.179096 47.39201944 62.15944357 43.56162554 62.1373291 39.73114014 C62.11688078 35.82338509 62.10773752 31.91560561 62.09765625 28.0078125 C62.07619802 20.33847262 62.04205651 12.66925751 62 5 C61.34 4.67 60.68 4.34 60 4 C60 3.34 60 2.68 60 2 C59.34 1.67 58.68 1.34 58 1 C58.33 0.67 58.66 0.34 59 0 C64.61 0 70.22 0 76 0 C76 25.08 76 50.16 76 76 C50.92 76 25.84 76 0 76 C0 50.92 0 25.84 0 0 Z " fill="#FDFDFD" transform="translate(0,0)"/>
<path d="M0 0 C16.17 0 32.34 0 49 0 C49 5.94 49 11.88 49 18 C43.71279819 23.28720181 33.47291789 22.25847103 26.50976562 22.2734375 C25.28966797 22.26570313 24.06957031 22.25796875 22.8125 22.25 C21.58080078 22.25773437 20.34910156 22.26546875 19.08007812 22.2734375 C4.24144044 22.24144044 4.24144044 22.24144044 0 18 C0 12.06 0 6.12 0 0 Z " fill="#070707" transform="translate(13,53)"/>
<path d="M0 0 C2.06066104 -0.1357683 4.12392757 -0.23233903 6.1875 -0.3125 C7.33605469 -0.37050781 8.48460937 -0.42851562 9.66796875 -0.48828125 C13 0 13 0 15.88671875 1.89453125 C18.8690291 6.27703906 18.73772452 9.81467205 18.625 15 C18.65400391 16.33417969 18.65400391 16.33417969 18.68359375 17.6953125 C18.65072448 22.09979461 18.4122456 24.39420471 15.88671875 28.10546875 C12.35018667 30.42646747 10.37813216 30.52414809 6.1875 30.3125 C5.02605469 30.26738281 3.86460938 30.22226562 2.66796875 30.17578125 C1.78753906 30.11777344 0.90710937 30.05976562 0 30 C1.03724494 26.88826517 1.41544715 25.89533875 4 24 C7.6875 23.3125 7.6875 23.3125 11 23 C11 21.68 11 20.36 11 19 C9.68 18.67 8.36 18.34 7 18 C7 16.02 7 14.04 7 12 C8.65 11.67 10.3 11.34 12 11 C12 9.68 12 8.36 12 7 C10.14375 6.938125 10.14375 6.938125 8.25 6.875 C4.40735288 6.43214173 4.14481969 6.17740412 1.5 2.9375 C1.005 1.968125 0.51 0.99875 0 0 Z " fill="#DE9554" transform="translate(35,13)"/>
<path d="M0 0 C5.85702925 -0.47812484 9.46755289 0.40994288 14 4 C17.28358448 7.5361679 18.28038259 10.28176794 18.5 15 C18.28038259 19.71823206 17.28358448 22.4638321 14 26 C9.87866388 29.19328707 6.25904722 30.51307778 1 30 C1 28.02 1 26.04 1 24 C1.55429687 23.82984375 2.10859375 23.6596875 2.6796875 23.484375 C7.06967376 22.08832936 7.06967376 22.08832936 10.5625 19.25 C11.20988993 15.92056609 10.78938756 13.27899449 10 10 C6.55549263 7.70366176 4.06187717 7.45983515 0 7 C0 4.69 0 2.38 0 0 Z " fill="#ED8B4D" transform="translate(21,13)"/>
<path d="M0 0 C0.66 0.66 1.32 1.32 2 2 C2.33 1.34 2.66 0.68 3 0 C5.62506802 -0.02690844 8.24986173 -0.04679404 10.875 -0.0625 C11.62136719 -0.07087891 12.36773437 -0.07925781 13.13671875 -0.08789062 C18.7734375 -0.11328125 18.7734375 -0.11328125 21 1 C20.67 1.99 20.34 2.98 20 4 C19.01 3.34 18.02 2.68 17 2 C14.02550392 1.75780685 14.02550392 1.75780685 10.8125 1.875 C9.18248047 1.90207031 9.18248047 1.90207031 7.51953125 1.9296875 C6.68808594 1.95289063 5.85664062 1.97609375 5 2 C5.495 2.45375 5.99 2.9075 6.5 3.375 C8 5 8 5 8 7 C9.423125 6.9690625 9.423125 6.9690625 10.875 6.9375 C14 7 14 7 16 8 C16 9.32 16 10.64 16 12 C14.35 12.33 12.7 12.66 11 13 C11 14.98 11 16.96 11 19 C12.65 19.33 14.3 19.66 16 20 C15.67 21.65 15.34 23.3 15 25 C12.69 25 10.38 25 8 25 C7.67 25.99 7.34 26.98 7 28 C6.34 28 5.68 28 5 28 C4.67 28.99 4.34 29.98 4 31 C1.69 31 -0.62 31 -3 31 C-2.443125 30.608125 -1.88625 30.21625 -1.3125 29.8125 C1.89599544 27.2977333 5.15661057 24.68677886 7 21 C7.54317573 16.0490868 7.52241949 12.10511815 5.375 7.5625 C2.78894334 4.77228097 0.50210305 3.43267852 -3 2 C-2.01 1.34 -1.02 0.68 0 0 Z " fill="#FDF4DC" transform="translate(31,12)"/>
<path d="M0 0 C0.12375 0.639375 0.2475 1.27875 0.375 1.9375 C0.58125 2.618125 0.7875 3.29875 1 4 C1.66 4.33 2.32 4.66 3 5 C1 6 1 6 -2.18969727 5.0769043 C-5.99605217 4.00111577 -9.0262666 3.75569073 -12.96484375 3.76953125 C-14.90713867 3.77243164 -14.90713867 3.77243164 -16.88867188 3.77539062 C-17.8872522 3.78469604 -17.8872522 3.78469604 -18.90600586 3.79418945 C-20.92900273 3.81242341 -22.95153886 3.81469873 -24.97460938 3.81445312 C-31.40155005 3.84321616 -37.6492491 3.98615088 -44 5 C-41.77302278 2.4389762 -40.32074748 1.59647278 -37 1 C-35.02194609 0.93044817 -33.04165384 0.91548222 -31.0625 0.9375 C-29.34933594 0.94910156 -29.34933594 0.94910156 -27.6015625 0.9609375 C-25.20052083 0.98697917 -22.79947917 1.01302083 -20.3984375 1.0390625 C-18.68527344 1.05066406 -18.68527344 1.05066406 -16.9375 1.0625 C-15.37322266 1.07990234 -15.37322266 1.07990234 -13.77734375 1.09765625 C-9.07862189 0.93244099 -4.79770992 -0.09226365 0 0 Z " fill="#EAEBEB" transform="translate(59,0)"/>
<path d="M0 0 C11.7560183 -0.77455465 11.7560183 -0.77455465 16.3125 2.0625 C18.36215922 5.63042531 18.39723422 7.94821095 18 12 C17.67 12 17.34 12 17 12 C16.67 10.35 16.34 8.7 16 7 C15.01 6.67 14.02 6.34 13 6 C12.67 6.66 12.34 7.32 12 8 C4.76955603 6.794926 4.76955603 6.794926 2.578125 4.53125 C1.5 2.875 1.5 2.875 0 0 Z " fill="#BB7960" transform="translate(35,13)"/>
<path d="M0 0 C-5.28720181 5.28720181 -15.52708211 4.25847103 -22.49023438 4.2734375 C-23.71033203 4.26570313 -24.93042969 4.25796875 -26.1875 4.25 C-27.41919922 4.25773437 -28.65089844 4.26546875 -29.91992188 4.2734375 C-35.98002319 4.2603699 -41.29680816 4.12919162 -47 2 C-47 1.67 -47 1.34 -47 1 C-45.92105469 1.01047363 -44.84210937 1.02094727 -43.73046875 1.03173828 C-39.69746262 1.06815305 -35.66447081 1.09097808 -31.63134766 1.10986328 C-29.89141388 1.11987218 -28.1514967 1.13348343 -26.41162109 1.15087891 C-23.89937215 1.17535354 -21.38734712 1.1865344 -18.875 1.1953125 C-17.72294067 1.21079636 -17.72294067 1.21079636 -16.54760742 1.22659302 C-12.69361937 1.22737959 -9.30283722 0.92512139 -5.5703125 -0.07470703 C-2 -1 -2 -1 0 0 Z " fill="#363636" transform="translate(62,71)"/>
<path d="M0 0 C6.12279743 -0.4998202 9.10753758 0.54649711 14 4 C15.4375 6.25 15.4375 6.25 16 8 C13.03 7.505 13.03 7.505 10 7 C10.33 7.33 10.66 7.66 11 8 C10.67 8.66 10.34 9.32 10 10 C9.01 9.34 8.02 8.68 7 8 C4.67612053 7.60612212 2.34206251 7.26513915 0 7 C0 4.69 0 2.38 0 0 Z " fill="#DB8163" transform="translate(21,13)"/>
<path d="M0 0 C3.3 0 6.6 0 10 0 C10.66 1.98 11.32 3.96 12 6 C7.92886437 8.32636321 4.65551788 8 0 8 C0 5.36 0 2.72 0 0 Z " fill="#515151" transform="translate(27,59)"/>
<path d="M0 0 C0.66 0.66 1.32 1.32 2 2 C2.33 1.34 2.66 0.68 3 0 C5.62506802 -0.02690844 8.24986173 -0.04679404 10.875 -0.0625 C11.62136719 -0.07087891 12.36773437 -0.07925781 13.13671875 -0.08789062 C18.7734375 -0.11328125 18.7734375 -0.11328125 21 1 C20.67 1.99 20.34 2.98 20 4 C19.01 3.34 18.02 2.68 17 2 C14.02550392 1.75780685 14.02550392 1.75780685 10.8125 1.875 C9.18248047 1.90207031 9.18248047 1.90207031 7.51953125 1.9296875 C6.68808594 1.95289063 5.85664062 1.97609375 5 2 C5.495 2.45375 5.99 2.9075 6.5 3.375 C8 5 8 5 8 7 C9.423125 6.9690625 9.423125 6.9690625 10.875 6.9375 C14 7 14 7 16 8 C16 9.32 16 10.64 16 12 C15.34 12 14.68 12 14 12 C14 11.01 14 10.02 14 9 C11.03 8.505 11.03 8.505 8 8 C7.67 8.99 7.34 9.98 7 11 C6.46375 10.071875 5.9275 9.14375 5.375 8.1875 C2.82105369 4.75983521 0.90189922 3.5962315 -3 2 C-2.01 1.34 -1.02 0.68 0 0 Z " fill="#F6DACC" transform="translate(31,12)"/>
<path d="M0 0 C2.475 0.99 2.475 0.99 5 2 C5.28571429 9.42857143 5.28571429 9.42857143 3 13 C2.34 12.67 1.68 12.34 1 12 C1 11.34 1 10.68 1 10 C0.01 9.67 -0.98 9.34 -2 9 C-2 8.01 -2 7.02 -2 6 C-1.34 6 -0.68 6 0 6 C0 4.02 0 2.04 0 0 Z " fill="#D57848" transform="translate(47,18)"/>
<path d="M0 0 C2.46996424 2.46996424 2.32331778 3.33897333 2.375 6.75 C2.25565232 11.62219372 1.39950504 14.33899458 -2 18 C-6.12133612 21.19328707 -9.74095278 22.51307778 -15 22 C-15 20.02 -15 18.04 -15 16 C-13.68 16.33 -12.36 16.66 -11 17 C-11.66 17 -12.32 17 -13 17 C-13 17.99 -13 18.98 -13 20 C-9.44493894 19.39056096 -6.22091831 18.65398508 -3 17 C-1.26784699 14.19060696 -0.67679235 11.76382836 -0.375 8.5 C-0.30023438 7.7471875 -0.22546875 6.994375 -0.1484375 6.21875 C-0.01002636 4.14986768 0 2.0735071 0 0 Z " fill="#DEA463" transform="translate(37,21)"/>
<path d="M0 0 C0.66 0 1.32 0 2 0 C0.22689875 4.13723625 -2.24153066 6.8460045 -6 9.3125 C-8.40341668 10.13867449 -9.63986261 9.84290621 -12 9 C-11.67 8.01 -11.34 7.02 -11 6 C-10.34 6 -9.68 6 -9 6 C-9 5.34 -9 4.68 -9 4 C-6.03 3.34 -3.06 2.68 0 2 C0 1.34 0 0.68 0 0 Z " fill="#EEA449" transform="translate(35,32)"/>
<path d="M0 0 C2.47526759 3.71290138 2.75322402 6.69825393 2 11 C0.3125 14 0.3125 14 -3 16 C-7.36564444 16.40696685 -11.62943267 16.28795832 -16 16 C-15.67 15.01 -15.34 14.02 -15 13 C-12.9375 12.3125 -12.9375 12.3125 -11 12 C-11 12.33 -11 12.66 -11 13 C-7.7 13 -4.4 13 -1 13 C-1 12.01 -1 11.02 -1 10 C-0.34 10 0.32 10 1 10 C0.505 5.05 0.505 5.05 0 0 Z " fill="#DDA463" transform="translate(51,27)"/>
<path d="M0 0 C1.32 0.33 2.64 0.66 4 1 C4 2.98 4 4.96 4 7 C3.34 7 2.68 7 2 7 C2 7.99 2 8.98 2 10 C-2.455 10.495 -2.455 10.495 -7 11 C-5.60804085 8.2160817 -3.84424221 8.02101003 -1 7 C-0.67 4.69 -0.34 2.38 0 0 Z " fill="#EE993A" transform="translate(48,30)"/>
<path d="M0 0 C0.66 0 1.32 0 2 0 C2.0270203 2.75006608 2.04684883 5.49986546 2.0625 8.25 C2.07087891 9.02730469 2.07925781 9.80460937 2.08789062 10.60546875 C2.09111328 11.35957031 2.09433594 12.11367188 2.09765625 12.890625 C2.10289307 13.58188477 2.10812988 14.27314453 2.11352539 14.98535156 C1.99437971 17.09973898 1.57618237 18.96641515 1 21 C0.34 21 -0.32 21 -1 21 C-1.02719556 18.62492145 -1.04693247 16.25016036 -1.0625 13.875 C-1.07087891 13.20984375 -1.07925781 12.5446875 -1.08789062 11.859375 C-1.10782292 7.79318646 -0.78890161 3.9879908 0 0 Z " fill="#F9E6CF" transform="translate(53,19)"/>
<path d="M0 0 C1.32 0 2.64 0 4 0 C4.33 2.31 4.66 4.62 5 7 C3.35 7.33 1.7 7.66 0 8 C0 5.36 0 2.72 0 0 Z " fill="#414141" transform="translate(27,59)"/>
<path d="M0 0 C0.12375 0.639375 0.2475 1.27875 0.375 1.9375 C0.58125 2.618125 0.7875 3.29875 1 4 C1.66 4.33 2.32 4.66 3 5 C-0.20062687 6.60031344 -2.72271806 5.03173691 -6 4 C-6 3.34 -6 2.68 -6 2 C-7.65 2 -9.3 2 -11 2 C-7.36576791 -0.32590854 -4.22911669 -0.16265833 0 0 Z " fill="#F2F4F1" transform="translate(59,0)"/>
<path d="M0 0 C3.3 0.33 6.6 0.66 10 1 C9 4 9 4 7 6 C4.69 5.01 2.38 4.02 0 3 C0 2.01 0 1.02 0 0 Z " fill="#CA6B50" transform="translate(40,15)"/>
<path d="M0 0 C0.33 0 0.66 0 1 0 C1 1.98 1 3.96 1 6 C1.66 5.01 2.32 4.02 3 3 C4.98 3.66 6.96 4.32 9 5 C9 5.99 9 6.98 9 8 C9.66 8 10.32 8 11 8 C10.67 8.66 10.34 9.32 10 10 C9.01 9.34 8.02 8.68 7 8 C4.67612053 7.60612212 2.34206251 7.26513915 0 7 C0 4.69 0 2.38 0 0 Z " fill="#E09678" transform="translate(21,13)"/>
<path d="M0 0 C0.66 1.32 1.32 2.64 2 4 C1.01 4.33 0.02 4.66 -1 5 C-1.33 5.99 -1.66 6.98 -2 8 C-4.31 8 -6.62 8 -9 8 C-8.443125 7.608125 -7.88625 7.21625 -7.3125 6.8125 C-4.6564795 4.7307542 -2.35135049 2.41666578 0 0 Z " fill="#F9E4B3" transform="translate(37,35)"/>
<path d="M0 0 C0.99 0 1.98 0 3 0 C2 3 2 3 0.1875 4.1875 C-2 5 -2 5 -6 5 C-6 6.98 -6 8.96 -6 11 C-6.33 11 -6.66 11 -7 11 C-7 8.36 -7 5.72 -7 3 C-5.5459375 2.814375 -5.5459375 2.814375 -4.0625 2.625 C-2.5465625 2.315625 -2.5465625 2.315625 -1 2 C-0.67 1.34 -0.34 0.68 0 0 Z " fill="#F7E3B9" transform="translate(28,32)"/>
<path d="M0 0 C0.66 0 1.32 0 2 0 C2 1.98 2 3.96 2 6 C-3.2734375 9.22265625 -3.2734375 9.22265625 -5 10 C-5.66 9.67 -6.32 9.34 -7 9 C-7 8.01 -7 7.02 -7 6 C-3.535 5.505 -3.535 5.505 0 5 C0 3.35 0 1.7 0 0 Z " fill="#E69E4D" transform="translate(46,31)"/>
<path d="M0 0 C0.33 0.99 0.66 1.98 1 3 C0 4 0 4 -3.59765625 4.09765625 C-5.08596867 4.0909822 -6.57426432 4.07902183 -8.0625 4.0625 C-8.82111328 4.05798828 -9.57972656 4.05347656 -10.36132812 4.04882812 C-12.24091871 4.0370068 -14.12046899 4.01907078 -16 4 C-16 3.67 -16 3.34 -16 3 C-15.09636719 2.95101562 -14.19273438 2.90203125 -13.26171875 2.8515625 C-12.08222656 2.77679688 -10.90273438 2.70203125 -9.6875 2.625 C-7.92986328 2.52058594 -7.92986328 2.52058594 -6.13671875 2.4140625 C-2.84300113 2.21386253 -2.84300113 2.21386253 0 0 Z " fill="#FDE8C9" transform="translate(51,40)"/>
<path d="M0 0 C2.97 0.495 2.97 0.495 6 1 C6 2.32 6 3.64 6 5 C4.35 5 2.7 5 1 5 C0.67 3.35 0.34 1.7 0 0 Z " fill="#FDF2E0" transform="translate(39,20)"/>
<path d="M0 0 C0.66 0.33 1.32 0.66 2 1 C2.4140625 3.28515625 2.4140625 3.28515625 2.625 6.0625 C2.69976562 6.98160156 2.77453125 7.90070312 2.8515625 8.84765625 C2.90054688 9.55792969 2.94953125 10.26820312 3 11 C1.35 11.33 -0.3 11.66 -2 12 C-1.67 11.319375 -1.34 10.63875 -1 9.9375 C0.17307315 6.49159762 0.14180493 3.61602578 0 0 Z " fill="#E19859" transform="translate(32,23)"/>
<path d="M0 0 C2.02045442 0.60183749 4.02111039 1.27306096 6 2 C6.33 2.66 6.66 3.32 7 4 C6.67 4.66 6.34 5.32 6 6 C4.68 5.67 3.36 5.34 2 5 C2 4.34 2 3.68 2 3 C1.34 3 0.68 3 0 3 C0 2.01 0 1.02 0 0 Z " fill="#EE8557" transform="translate(30,18)"/>
<path d="M0 0 C1.32 0 2.64 0 4 0 C3.67 2.31 3.34 4.62 3 7 C2.01 6.34 1.02 5.68 0 5 C0.33 4.34 0.66 3.68 1 3 C0.34 3 -0.32 3 -1 3 C-0.67 2.01 -0.34 1.02 0 0 Z " fill="#DF804D" transform="translate(48,24)"/>
<path d="M0 0 C0.66 0 1.32 0 2 0 C1 2 0 4 -1 6 C-2.32 6 -3.64 6 -5 6 C-5 5.01 -5 4.02 -5 3 C-3.35 2.67 -1.7 2.34 0 2 C0 1.34 0 0.68 0 0 Z " fill="#F19A3C" transform="translate(35,32)"/>
<path d="M0 0 C2.64 0 5.28 0 8 0 C7.01 0.33 6.02 0.66 5 1 C5.33 2.65 5.66 4.3 6 6 C5.34 6 4.68 6 4 6 C2.61061923 4.03852126 1.2739589 2.03833424 0 0 Z " fill="#A76861" transform="translate(35,13)"/>
<path d="M0 0 C1.65 0.33 3.3 0.66 5 1 C4.67 2.65 4.34 4.3 4 6 C2.02 6 0.04 6 -2 6 C-2 5.67 -2 5.34 -2 5 C-0.35 5 1.3 5 3 5 C2.2236068 1.9254644 2.2236068 1.9254644 0 0 Z " fill="#F8D3A2" transform="translate(42,31)"/>
<path d="M0 0 C0.33 0.66 0.66 1.32 1 2 C1.66 2 2.32 2 3 2 C3 3.98 3 5.96 3 8 C2.01 7.67 1.02 7.34 0 7 C0 4.69 0 2.38 0 0 Z " fill="#FCE3BE" transform="translate(39,23)"/>
<path d="M0 0 C1.32 0 2.64 0 4 0 C4.33 1.32 4.66 2.64 5 4 C3.35 3.67 1.7 3.34 0 3 C0 2.01 0 1.02 0 0 Z " fill="#B96550" transform="translate(40,15)"/>
</svg>
