<?xml version="1.0" encoding="UTF-8"?>
<svg version="1.1" xmlns="http://www.w3.org/2000/svg" width="76" height="76">
<path d="M0 0 C25.08 0 50.16 0 76 0 C76 25.08 76 50.16 76 76 C50.92 76 25.84 76 0 76 C0 50.92 0 25.84 0 0 Z " fill="#D7D8DA" transform="translate(0,0)"/>
<path d="M0 0 C0.99 0.33 1.98 0.66 3 1 C2.979375 2.051875 2.95875 3.10375 2.9375 4.1875 C2.98896802 7.32704904 3.26517187 9.96883396 4 13 C2.35 13.33 0.7 13.66 -1 14 C-1 14.66 -1 15.32 -1 16 C1.64 16 4.28 16 7 16 C7.33 14.68 7.66 13.36 8 12 C8.66 12 9.32 12 10 12 C10 13.32 10 14.64 10 16 C10.99 16 11.98 16 13 16 C13.33 15.01 13.66 14.02 14 13 C14.66 13.33 15.32 13.66 16 14 C16 14.66 16 15.32 16 16 C16.99 16 17.98 16 19 16 C19 15.34 19 14.68 19 14 C19.61746094 14.13277344 20.23492187 14.26554687 20.87109375 14.40234375 C26.57627325 15.59200827 32.19930684 16.4386426 38 17 C38.66 15.35 39.32 13.7 40 12 C48.49836586 20.49836586 42 35.98149575 42 48 C16.92 48 -8.16 48 -34 48 C-34 36.45 -34 24.9 -34 13 C-28 13 -28 13 -25.1875 15.4375 C-24.465625 16.283125 -23.74375 17.12875 -23 18 C-21.87465895 19.35618499 -21.87465895 19.35618499 -18.9375 19.0625 C-17.4834375 19.0315625 -17.4834375 19.0315625 -16 19 C-16 18.01 -16 17.02 -16 16 C-15.34 16 -14.68 16 -14 16 C-14 15.34 -14 14.68 -14 14 C-13.34 14 -12.68 14 -12 14 C-11.67 12.35 -11.34 10.7 -11 9 C-9.02 8.67 -7.04 8.34 -5 8 C-5 7.34 -5 6.68 -5 6 C-4.01 6 -3.02 6 -2 6 C-2 4.35 -2 2.7 -2 1 C-1.34 0.67 -0.68 0.34 0 0 Z " fill="#D8D8D9" transform="translate(34,28)"/>
<path d="M0 0 C3.96 0 7.92 0 12 0 C12 4.29 12 8.58 12 13 C11.01 13.33 10.02 13.66 9 14 C8.26676204 16.01508358 8.26676204 16.01508358 8 18 C7.34 18 6.68 18 6 18 C5.34 19.98 4.68 21.96 4 24 C0.29706315 24.33663062 -1.39534381 24.47736015 -4.375 22.125 C-6 20 -6 20 -6 18 C-7.65 17.67 -9.3 17.34 -11 17 C-11 16.34 -11 15.68 -11 15 C-11.66 15 -12.32 15 -13 15 C-13 13.68 -13 12.36 -13 11 C-9.535 10.505 -9.535 10.505 -6 10 C-6 8.35 -6 6.7 -6 5 C-2.535 4.505 -2.535 4.505 1 4 C0.67 2.68 0.34 1.36 0 0 Z " fill="#A8C9F0" transform="translate(14,24)"/>
<path d="M0 0 C3.69593971 -0.41620943 7.27119087 -0.13007474 11 0 C11 4.29 11 8.58 11 13 C7.37 13 3.74 13 0 13 C-2.00943169 8.98113663 -2.36963693 7.34323398 -2 3 C-1.34 2.01 -0.68 1.02 0 0 Z " fill="#374052" transform="translate(61,31)"/>
<path d="M0 0 C3.96 0 7.92 0 12 0 C12 3.96 12 7.92 12 12 C10.68 11.34 9.36 10.68 8 10 C7.25 7.375 7.25 7.375 7 5 C4.03 4.505 4.03 4.505 1 4 C0.67 2.68 0.34 1.36 0 0 Z " fill="#4F89D6" transform="translate(14,24)"/>
<path d="M0 0 C3.96 0 7.92 0 12 0 C12 3.63 12 7.26 12 11 C10.68 10.67 9.36 10.34 8 10 C7.67 8.35 7.34 6.7 7 5 C5.35 5 3.7 5 2 5 C1.34 3.35 0.68 1.7 0 0 Z " fill="#5088D4" transform="translate(3,35)"/>
<path d="M0 0 C3.63 0 7.26 0 11 0 C11 3.63 11 7.26 11 11 C9.68 10.34 8.36 9.68 7 9 C7 7.35 7 5.7 7 4 C4.69 3.67 2.38 3.34 0 3 C0 2.01 0 1.02 0 0 Z " fill="#3A7FD8" transform="translate(9,30)"/>
<path d="M0 0 C2.4375 0.1875 2.4375 0.1875 3.4375 1.1875 C3.5625 4.6875 3.5625 4.6875 3.4375 8.1875 C2.4375 9.1875 2.4375 9.1875 0 9.375 C-2.5625 9.1875 -2.5625 9.1875 -4.5625 7.1875 C-4.8125 4.6875 -4.8125 4.6875 -4.5625 2.1875 C-2.5625 0.1875 -2.5625 0.1875 0 0 Z " fill="#CBD0DC" transform="translate(65.5625,32.8125)"/>
<path d="M0 0 C0.99 0 1.98 0 3 0 C3.05397335 2.4377963 3.09365616 4.87439685 3.125 7.3125 C3.15013672 8.34793945 3.15013672 8.34793945 3.17578125 9.40429688 C3.21217794 13.17135396 3.14378864 14.78431704 1 18 C-2.125 18.1875 -2.125 18.1875 -5 18 C-5 17.34 -5 16.68 -5 16 C-3.68 15.67 -2.36 15.34 -1 15 C-0.67 10.05 -0.34 5.1 0 0 Z " fill="#454E5F" transform="translate(38,26)"/>
<path d="M0 0 C0.99 0 1.98 0 3 0 C3 0.99 3 1.98 3 3 C3.99 3.33 4.98 3.66 6 4 C5.01 4.33 4.02 4.66 3 5 C3 9.29 3 13.58 3 18 C2.01 18 1.02 18 0 18 C-0.19484938 15.56288386 -0.38115178 13.12562602 -0.5625 10.6875 C-0.64661133 9.65206055 -0.64661133 9.65206055 -0.73242188 8.59570312 C-0.96581505 5.37487726 -1.03224218 3.09672655 0 0 Z " fill="#666C7C" transform="translate(44,26)"/>
<path d="M0 0 C2.64 0 5.28 0 8 0 C8 0.66 8 1.32 8 2 C6.68 2.33 5.36 2.66 4 3 C3.67 6.3 3.34 9.6 3 13 C2.01 13 1.02 13 0 13 C0 8.71 0 4.42 0 0 Z " fill="#4D5364" transform="translate(50,31)"/>
<path d="M0 0 C2.31 0 4.62 0 7 0 C7 2.31 7 4.62 7 7 C4 7 4 7 1.8125 5.1875 C0 3 0 3 0 0 Z " fill="#1D68C9" transform="translate(8,35)"/>
<path d="M0 0 C1.99954746 -0.04254356 4.00041636 -0.04080783 6 0 C7 1 7 1 7.0625 3.5625 C7.041875 4.366875 7.02125 5.17125 7 6 C5.68 6 4.36 6 3 6 C3 5.01 3 4.02 3 3 C2.34 3 1.68 3 1 3 C0.67 2.01 0.34 1.02 0 0 Z " fill="#3285E9" transform="translate(18,26)"/>
<path d="M0 0 C1.65 0.99 3.3 1.98 5 3 C4.01 3.66 3.02 4.32 2 5 C1.27617533 7.05925139 1.27617533 7.05925139 1 9 C-1.31 9 -3.62 9 -6 9 C-5.67 7.68 -5.34 6.36 -5 5 C-3.35 5.99 -1.7 6.98 0 8 C0 5.36 0 2.72 0 0 Z " fill="#B2D4F9" transform="translate(21,33)"/>
<path d="M0 0 C0.33 0 0.66 0 1 0 C1 1.65 1 3.3 1 5 C-1.31 5.33 -3.62 5.66 -6 6 C-6 7.32 -6 8.64 -6 10 C-5.34 10 -4.68 10 -4 10 C-4 10.66 -4 11.32 -4 12 C-4.99 12 -5.98 12 -7 12 C-7 9.36 -7 6.72 -7 4 C-5.824375 3.8453125 -5.824375 3.8453125 -4.625 3.6875 C-1.66954819 3.22404978 -1.66954819 3.22404978 0 0 Z " fill="#CFD9E8" transform="translate(7,29)"/>
<path d="M0 0 C0.66 0.33 1.32 0.66 2 1 C2 4.96 2 8.92 2 13 C1.34 13 0.68 13 0 13 C-0.103125 12.071875 -0.20625 11.14375 -0.3125 10.1875 C-1.0070192 6.96745642 -1.47740939 5.97420135 -4 4 C-2.68 4 -1.36 4 0 4 C0 3.34 0 2.68 0 2 C-0.66 1.67 -1.32 1.34 -2 1 C-1.34 0.67 -0.68 0.34 0 0 Z " fill="#C1CAD5" transform="translate(58,29)"/>
<path d="M0 0 C3.375 -0.125 3.375 -0.125 7 0 C7.66 0.66 8.32 1.32 9 2 C7 3 7 3 4.625 2.9375 C1.83106728 3.00402221 0.37470319 3.59276848 -2 5 C-1.34 3.35 -0.68 1.7 0 0 Z " fill="#454D5C" transform="translate(61,31)"/>
<path d="M0 0 C3 3.875 3 3.875 3 5 C0.36 5 -2.28 5 -5 5 C-5 4.01 -5 3.02 -5 2 C-3.35 1.34 -1.7 0.68 0 0 Z " fill="#CAD9F3" transform="translate(13,24)"/>
<path d="M0 0 C0.66 0 1.32 0 2 0 C2 3.3 2 6.6 2 10 C1.34 10 0.68 10 0 10 C-1.125 2.25 -1.125 2.25 0 0 Z " fill="#2F344A" transform="translate(70,31)"/>
<path d="M0 0 C0.33 0 0.66 0 1 0 C1 1.98 1 3.96 1 6 C1.66 6 2.32 6 3 6 C3 6.99 3 7.98 3 9 C0.69 8.67 -1.62 8.34 -4 8 C-3.01 7.34 -2.02 6.68 -1 6 C-0.26656572 2.93443402 -0.26656572 2.93443402 0 0 Z " fill="#4C516A" transform="translate(69,35)"/>
<path d="M0 0 C1.65 0 3.3 0 5 0 C5.33 1.32 5.66 2.64 6 4 C4.35 3.67 2.7 3.34 1 3 C0.67 2.01 0.34 1.02 0 0 Z " fill="#3E7FC2" transform="translate(3,35)"/>
<path d="M0 0 C1.32 0 2.64 0 4 0 C4 1.98 4 3.96 4 6 C3.01 6.495 3.01 6.495 2 7 C2 5.35 2 3.7 2 2 C1.34 2 0.68 2 0 2 C0 1.34 0 0.68 0 0 Z " fill="#1766C6" transform="translate(16,30)"/>
<path d="M0 0 C0.33 0 0.66 0 1 0 C1 3.63 1 7.26 1 11 C-0.32 10.34 -1.64 9.68 -3 9 C-2.34 8.34 -1.68 7.68 -1 7 C-0.59952556 4.67724823 -0.2602896 2.34260643 0 0 Z " fill="#4780C7" transform="translate(25,25)"/>
</svg>
