<?xml version="1.0" encoding="UTF-8"?>
<svg version="1.1" xmlns="http://www.w3.org/2000/svg" width="76" height="76">
<path d="M0 0 C25.08 0 50.16 0 76 0 C76 25.08 76 50.16 76 76 C50.92 76 25.84 76 0 76 C0 50.92 0 25.84 0 0 Z " fill="#027ACA" transform="translate(0,0)"/>
<path d="M0 0 C2.64 0 5.28 0 8 0 C8.33 1.65 8.66 3.3 9 5 C10.32 5 11.64 5 13 5 C13.33 3.68 13.66 2.36 14 1 C16.08153935 0.86463978 18.16561206 0.76784535 20.25 0.6875 C21.41015625 0.62949219 22.5703125 0.57148437 23.765625 0.51171875 C27 1 27 1 29.421875 3.3828125 C31 6 31 6 31 8.1875 C29.72074209 10.50615495 28.43003677 11.0593406 26 12 C25.34 11.34 24.68 10.68 24 10 C21.42938689 9.35232207 21.42938689 9.35232207 19 9 C19.26079687 11.89050521 19.26079687 11.89050521 21 15 C23.45844431 16.49551812 25.93361292 17.62338563 28.58984375 18.7265625 C31.29936697 20.15817445 32.45392415 21.37515097 34 24 C34.49500009 27.34125063 34.72317495 29.75868821 32.98046875 32.75 C30.82503815 35.45893997 29.31057057 36.89647648 26 38 C23.96007192 38.09398043 21.91708586 38.12992069 19.875 38.125 C18.79992188 38.12757812 17.72484375 38.13015625 16.6171875 38.1328125 C14 38 14 38 13 37 C11.845 36.835 10.69 36.67 9.5 36.5 C6 36 6 36 5 35 C2.94603274 35.40929986 2.94603274 35.40929986 1 36 C0.67 34.68 0.34 33.36 0 32 C-0.12375 32.804375 -0.2475 33.60875 -0.375 34.4375 C-0.684375 35.7059375 -0.684375 35.7059375 -1 37 C-3 38 -3 38 -10 38 C-10 28.43 -10 18.86 -10 9 C-12.97 9 -15.94 9 -19 9 C-19 6.69 -19 4.38 -19 2 C-12.73 1.67 -6.46 1.34 0 1 C0 0.67 0 0.34 0 0 Z " fill="#0D7CC7" transform="translate(36,32)"/>
<path d="M0 0 C2.30859375 1.52734375 2.30859375 1.52734375 4 3 C3.75 4.875 3.75 4.875 3 7 C0.9375 8.25 0.9375 8.25 -1 9 C-1.66 8.34 -2.32 7.68 -3 7 C-5.57061311 6.35232207 -5.57061311 6.35232207 -8 6 C-7.73920313 8.89050521 -7.73920313 8.89050521 -6 12 C-3.54155569 13.49551812 -1.06638708 14.62338563 1.58984375 15.7265625 C4.29936697 17.15817445 5.45392415 18.37515097 7 21 C7.49500009 24.34125063 7.72317495 26.75868821 5.98046875 29.75 C3.82503815 32.45893997 2.31057057 33.89647648 -1 35 C-7.90755223 35.70246294 -11.48161269 34.10943736 -17 30 C-16.67 28.68 -16.34 27.36 -16 26 C-13.625 25.375 -13.625 25.375 -11 25 C-10.34 25.66 -9.68 26.32 -9 27 C-5.41656024 27.16677282 -5.41656024 27.16677282 -2 27 C-2.16213924 24.57951707 -2.16213924 24.57951707 -3 22 C-4.94742783 20.43117912 -4.94742783 20.43117912 -7.375 19.375 C-13.03290289 16.62898198 -13.03290289 16.62898198 -15 14 C-15.68052096 10.6030662 -15.56943803 7.41104547 -15 4 C-11.43196168 -0.99525365 -5.68838958 -1.02668495 0 0 Z " fill="#F2FDFC" transform="translate(63,35)"/>
<path d="M0 0 C8.58 0 17.16 0 26 0 C26 1.98 26 3.96 26 6 C23.03 6 20.06 6 17 6 C17.00785522 7.26444946 17.00785522 7.26444946 17.01586914 8.55444336 C17.03287826 11.67227936 17.04543406 14.79009177 17.05493164 17.90795898 C17.05997057 19.25920386 17.06680177 20.61044326 17.07543945 21.96166992 C17.08752419 23.90020434 17.09269828 25.838778 17.09765625 27.77734375 C17.10551147 29.52905884 17.10551147 29.52905884 17.11352539 31.31616211 C17 34 17 34 16 35 C13.69 35 11.38 35 9 35 C9 25.43 9 15.86 9 6 C6.03 6 3.06 6 0 6 C0 4.02 0 2.04 0 0 Z " fill="#F5FEFD" transform="translate(17,35)"/>
<path d="M0 0 C0.99 0.495 0.99 0.495 2 1 C2 9.58 2 18.16 2 27 C3.32 27 4.64 27 6 27 C6 18.42 6 9.84 6 1 C6.66 0.67 7.32 0.34 8 0 C8.02465881 3.96930989 8.04284023 7.93859034 8.05493164 11.90795898 C8.05997057 13.25920386 8.06680177 14.61044326 8.07543945 15.96166992 C8.08752419 17.90020434 8.09269828 19.838778 8.09765625 21.77734375 C8.10289307 22.94515381 8.10812988 24.11296387 8.11352539 25.31616211 C8 28 8 28 7 29 C4.69 29 2.38 29 0 29 C0 19.43 0 9.86 0 0 Z " fill="#ADDCEB" transform="translate(26,41)"/>
<path d="M0 0 C2.64 0 5.28 0 8 0 C8.33 1.65 8.66 3.3 9 5 C10.32 5 11.64 5 13 5 C13.33 3.68 13.66 2.36 14 1 C16.12438339 0.91921359 18.2496323 0.86090859 20.375 0.8125 C21.55835938 0.77769531 22.74171875 0.74289063 23.9609375 0.70703125 C25.46527344 0.85205078 25.46527344 0.85205078 27 1 C27.66 1.99 28.32 2.98 29 4 C28.19175781 3.94199219 27.38351563 3.88398437 26.55078125 3.82421875 C19.74871304 3.30769522 19.74871304 3.30769522 14.0625 6.5 C13.381875 7.325 12.70125 8.15 12 9 C9.1875 9.3125 9.1875 9.3125 7 9 C7 7.02 7 5.04 7 3 C-1.58 3 -10.16 3 -19 3 C-19 2.67 -19 2.34 -19 2 C-12.73 1.67 -6.46 1.34 0 1 C0 0.67 0 0.34 0 0 Z " fill="#1F7BAE" transform="translate(36,32)"/>
<path d="M0 0 C2 1.5625 2 1.5625 4 4 C4.51470588 9.97058824 4.51470588 9.97058824 3 13 C2.154375 12.814375 1.30875 12.62875 0.4375 12.4375 C-3.2773282 11.96470368 -6.32974273 12.33935369 -10 13 C-10.33 12.34 -10.66 11.68 -11 11 C-9.02 10.67 -7.04 10.34 -5 10 C-5.34444881 7.52733235 -5.34444881 7.52733235 -6 5 C-6.66 4.67 -7.32 4.34 -8 4 C-8 3.34 -8 2.68 -8 2 C-6.68 2.33 -5.36 2.66 -4 3 C-4 3.66 -4 4.32 -4 5 C-2.68 4.67 -1.36 4.34 0 4 C0 2.68 0 1.36 0 0 Z " fill="#D6F1F8" transform="translate(66,52)"/>
<path d="M0 0 C8.58 0 17.16 0 26 0 C26 1.98 26 3.96 26 6 C23.03 6 20.06 6 17 6 C17 5.67 17 5.34 17 5 C19.31 5 21.62 5 24 5 C24 4.34 24 3.68 24 3 C17.07 2.67 10.14 2.34 3 2 C3 2.99 3 3.98 3 5 C4.98 5 6.96 5 9 5 C9 5.33 9 5.66 9 6 C6.03 6 3.06 6 0 6 C0 4.02 0 2.04 0 0 Z " fill="#D5FDFD" transform="translate(17,35)"/>
<path d="M0 0 C1.65581725 0.70620155 3.29951386 1.44087238 4.9375 2.1875 C5.85402344 2.59355469 6.77054688 2.99960937 7.71484375 3.41796875 C10 5 10 5 10.87890625 7.61328125 C10.91886719 8.40089844 10.95882812 9.18851563 11 10 C10 11 10 11 6.5625 11.1875 C3 11 3 11 1 9 C-2.09926819 9.32198966 -2.09926819 9.32198966 -5 10 C-4.625 7.0625 -4.625 7.0625 -4 4 C-3.34 3.67 -2.68 3.34 -2 3 C-1.67 3.66 -1.34 4.32 -1 5 C1.01669827 6.13350534 1.01669827 6.13350534 3 7 C3 7.66 3 8.32 3 9 C5.31 9 7.62 9 10 9 C10 8.34 10 7.68 10 7 C9.21625 6.855625 8.4325 6.71125 7.625 6.5625 C5 6 5 6 3 5 C3 4.34 3 3.68 3 3 C2.01 2.67 1.02 2.34 0 2 C0 1.34 0 0.68 0 0 Z " fill="#2276AE" transform="translate(51,52)"/>
<path d="M0 0 C1.65 0 3.3 0 5 0 C5 1.33333333 5 2.66666667 5 4 C7.97 4.495 7.97 4.495 11 5 C11 6.32 11 7.64 11 9 C11.99 9.33 12.98 9.66 14 10 C13.67 11.32 13.34 12.64 13 14 C12.505 13.4225 12.01 12.845 11.5 12.25 C8.73783884 9.76405496 6.05051564 8.38901563 2.70703125 6.83203125 C1 6 1 6 0 5 C-0.04063832 3.33382885 -0.042721 1.66611905 0 0 Z " fill="#1B7EC2" transform="translate(55,41)"/>
<path d="M0 0 C0.33 0 0.66 0 1 0 C1 1.98 1 3.96 1 6 C3.97 6 6.94 6 10 6 C10 15.57 10 25.14 10 35 C12.31 35 14.62 35 17 35 C17 35.33 17 35.66 17 36 C14.36 36 11.72 36 9 36 C8.67 27.09 8.34 18.18 8 9 C5.36 8.67 2.72 8.34 0 8 C0 5.36 0 2.72 0 0 Z " fill="#287EB8" transform="translate(16,35)"/>
<path d="M0 0 C5.75 0.75 5.75 0.75 8 3 C7.875 5 7.875 5 7 7 C4.9375 8.25 4.9375 8.25 3 9 C2.34 8.34 1.68 7.68 1 7 C-1.06874034 6.3574765 -1.06874034 6.3574765 -3 6 C-3 5.34 -3 4.68 -3 4 C-1.68 3.34 -0.36 2.68 1 2 C0.67 1.34 0.34 0.68 0 0 Z " fill="#D2F4FA" transform="translate(59,35)"/>
<path d="M0 0 C0.8353125 0.37125 0.8353125 0.37125 1.6875 0.75 C1.089375 1.018125 0.49125 1.28625 -0.125 1.5625 C-3.15318566 3.17364755 -3.15318566 3.17364755 -5.3125 5.75 C-5.5654766 8.46815286 -5.4472974 11.00911949 -5.3125 13.75 C-4.3225 13.42 -3.3325 13.09 -2.3125 12.75 C-1.9825 14.4 -1.6525 16.05 -1.3125 17.75 C-3.78050047 16.59826645 -5.36033565 15.70216435 -7.3125 13.75 C-7.87258494 10.36590783 -7.8522587 7.13575909 -7.3125 3.75 C-4.9255208 0.89888595 -3.78479561 -0.40916709 0 0 Z " fill="#DDFBFC" transform="translate(55.3125,35.25)"/>
<path d="M0 0 C2.01920337 1.30406884 4.01924973 2.63823419 6 4 C6 4.33 6 4.66 6 5 C3.36 5.66 0.72 6.32 -2 7 C-1.125 1.125 -1.125 1.125 0 0 Z " fill="#1580BE" transform="translate(48,55)"/>
<path d="M0 0 C4.455 1.98 4.455 1.98 9 4 C9 4.99 9 5.98 9 7 C7.02 6.34 5.04 5.68 3 5 C3 4.34 3 3.68 3 3 C2.01 2.67 1.02 2.34 0 2 C0 1.34 0 0.68 0 0 Z " fill="#2081BF" transform="translate(51,52)"/>
<path d="M0 0 C0.99 0 1.98 0 3 0 C3 2.97 3 5.94 3 9 C2.01 8.34 1.02 7.68 0 7 C-0.1875 3.375 -0.1875 3.375 0 0 Z " fill="#0B74C0" transform="translate(44,41)"/>
<path d="M0 0 C2.64 0 5.28 0 8 0 C9.10844919 3.32534757 8.84454356 5.62182575 8 9 C7.67 9 7.34 9 7 9 C7 6.69 7 4.38 7 2 C4.69 1.67 2.38 1.34 0 1 C0 0.67 0 0.34 0 0 Z " fill="#258ACC" transform="translate(36,32)"/>
<path d="M0 0 C-0.33 0.66 -0.66 1.32 -1 2 C-3.75078884 2.91692961 -5.35948913 3.10886083 -8.1875 3.0625 C-10.0746875 3.0315625 -10.0746875 3.0315625 -12 3 C-7.59360646 0.79680323 -5.02549129 -0.10924981 0 0 Z " fill="#BEE9F7" transform="translate(66,67)"/>
<path d="M0 0 C0.24492188 0.61359375 0.48984375 1.2271875 0.7421875 1.859375 C2.25052285 4.42635567 3.44256788 5.03857904 6.125 6.25 C6.84945312 6.58515625 7.57390625 6.9203125 8.3203125 7.265625 C8.87460937 7.50796875 9.42890625 7.7503125 10 8 C6.49270578 9.16909807 4.55692677 8.85056945 1 8 C-0.35439668 5.29120665 -0.06501451 2.99066732 0 0 Z " fill="#C5EBF5" transform="translate(54,42)"/>
<path d="M0 0 C-0.639375 0.2475 -1.27875 0.495 -1.9375 0.75 C-4.18741541 1.81562433 -4.18741541 1.81562433 -4.75 4.125 C-4.8325 4.74375 -4.915 5.3625 -5 6 C-5.66 5.34 -6.32 4.68 -7 4 C-6.75 1.9375 -6.75 1.9375 -6 0 C-3.50907189 -1.24546405 -2.58919267 -0.7767578 0 0 Z " fill="#C9F3FA" transform="translate(53,61)"/>
<path d="M0 0 C1.65 0 3.3 0 5 0 C5.33 0.66 5.66 1.32 6 2 C5.01 2.33 4.02 2.66 3 3 C3 3.66 3 4.32 3 5 C2.01 5 1.02 5 0 5 C0 3.35 0 1.7 0 0 Z " fill="#2177AC" transform="translate(55,41)"/>
<path d="M0 0 C2.475 0.495 2.475 0.495 5 1 C4.67 2.32 4.34 3.64 4 5 C2.68 5 1.36 5 0 5 C0 3.35 0 1.7 0 0 Z " fill="#137AB5" transform="translate(44,36)"/>
<path d="M0 0 C0.8353125 0.37125 0.8353125 0.37125 1.6875 0.75 C1.048125 1.03875 0.40875 1.3275 -0.25 1.625 C-2.46456079 2.57823451 -2.46456079 2.57823451 -3.3125 4.75 C-4.6325 4.42 -5.9525 4.09 -7.3125 3.75 C-2.88173077 -0.31153846 -2.88173077 -0.31153846 0 0 Z " fill="#CFF6FA" transform="translate(55.3125,35.25)"/>
</svg>
