<?xml version="1.0" encoding="UTF-8"?>
<svg version="1.1" xmlns="http://www.w3.org/2000/svg" width="76" height="76">
<path d="M0 0 C25.08 0 50.16 0 76 0 C76 25.08 76 50.16 76 76 C50.92 76 25.84 76 0 76 C0 50.92 0 25.84 0 0 Z " fill="#7DD758" transform="translate(0,0)"/>
<path d="M0 0 C18.91794049 -1.47441982 18.91794049 -1.47441982 23.73046875 1.93359375 C25.65896995 4.90967585 27 7.41193734 27 11 C27.66 11 28.32 11 29 11 C29.268125 10.29875 29.53625 9.5975 29.8125 8.875 C31.06127515 5.85164964 32.53712018 2.92575964 34 0 C41.26 0 48.52 0 56 0 C56 4 56 4 54.265625 5.78515625 C53.51796875 6.51605469 52.7703125 7.24695313 52 8 C50.43780989 10.3994948 49.10395739 12.91599748 47.75 15.4375 C44.89123431 20.64803186 41.96160764 25.77151004 38.8125 30.8125 C35.31143524 36.42542947 32.09310251 42.1535676 29 48 C28.01 48 27.02 48 26 48 C25.62488281 47.2265625 25.24976562 46.453125 24.86328125 45.65625 C22.25946162 40.35678839 19.62061831 35.20505398 16.41015625 30.25 C14.16470072 26.66722331 12.10935178 22.97520371 10.02758789 19.29589844 C7.49386106 14.82921916 4.85490436 10.43862114 2.12890625 6.0859375 C1.0188876 4.03489957 0.51866022 2.25804433 0 0 Z " fill="#45B480" transform="translate(10,4)"/>
<path d="M0 0 C3.7730597 -0.47576234 7.24805478 -0.70612452 11 0 C13.49022356 2.31084305 14.8450192 4.82220751 16 8 C16 8.66 16 9.32 16 10 C16.66 10 17.32 10 18 10 C18.268125 9.278125 18.53625 8.55625 18.8125 7.8125 C19.204375 6.884375 19.59625 5.95625 20 5 C20.309375 4.071875 20.61875 3.14375 20.9375 2.1875 C23 0 23 0 25.640625 -0.3125 C28.44374969 -0.3125 31.20553337 -0.21349915 34 0 C28.66666667 9.33333333 23.33333333 18.66666667 18 28 C17.34 28 16.68 28 16 28 C14.32115275 25.42435845 12.76788027 22.85626658 11.25 20.1875 C10.80479004 19.41736572 10.35958008 18.64723145 9.90087891 17.85375977 C6.50458164 11.95489526 3.19381792 6.01112885 0 0 Z " fill="#2E5057" transform="translate(21,5)"/>
<path d="M0 0 C0.99 0.33 1.98 0.66 3 1 C3.33 2.65 3.66 4.3 4 6 C6.10232344 3.1315587 6.10232344 3.1315587 7 0 C7.66 0 8.32 0 9 0 C9.33 0.66 9.66 1.32 10 2 C11.97515761 2.26335435 13.95159652 2.52091699 15.93359375 2.7265625 C20.23300005 3.29548205 23.1728815 4.72649436 26 8 C26.33 6.68 26.66 5.36 27 4 C27.66 4 28.32 4 29 4 C29 7.3 29 10.6 29 14 C28.01 14.33 27.02 14.66 26 15 C25.34 14.67 24.68 14.34 24 14 C20.2677822 13.71874435 16.53554042 13.55253992 12.796875 13.37890625 C9.11635284 13.01161134 6.3103331 12.65516655 3 11 C1.7578125 8.3984375 1.7578125 8.3984375 1.125 5.375 C0.90070312 4.37210938 0.67640625 3.36921875 0.4453125 2.3359375 C0.29835938 1.56507812 0.15140625 0.79421875 0 0 Z " fill="#7FC672" transform="translate(20,56)"/>
<path d="M0 0 C0 0.33 0 0.66 0 1 C-3.3 1 -6.6 1 -10 1 C-10.33 2.32 -10.66 3.64 -11 5 C-12.21991283 7.41043016 -13.61501686 9.67680248 -15 12 C-15.66 12 -16.32 12 -17 12 C-17.8980188 10.3776775 -18.7435214 8.72612319 -19.5625 7.0625 C-21.68650593 3.18824318 -21.68650593 3.18824318 -25.39453125 1.11328125 C-27.6419678 0.89738577 -29.75027956 0.83002112 -32 1 C-30 -2 -30 -2 -27.33203125 -2.671875 C-17.73362277 -3.61708756 -8.97156964 -3.77750301 0 0 Z " fill="#81D35F" transform="translate(54,3)"/>
<path d="M0 0 C7.26 0 14.52 0 22 0 C22 4 22 4 20.265625 5.78515625 C19.51796875 6.51605469 18.7703125 7.24695313 18 8 C16.43780989 10.3994948 15.10395739 12.91599748 13.75 15.4375 C10.89123431 20.64803186 7.96160764 25.77151004 4.8125 30.8125 C1.31143524 36.42542947 -1.90689749 42.1535676 -5 48 C-5.99 48 -6.98 48 -8 48 C-8.33 46.68 -8.66 45.36 -9 44 C-8.01 44 -7.02 44 -6 44 C-6 43.34 -6 42.68 -6 42 C-5.01 41.505 -5.01 41.505 -4 41 C-3.67 40.01 -3.34 39.02 -3 38 C-2.34 38 -1.68 38 -1 38 C-0.87882812 37.43410156 -0.75765625 36.86820313 -0.6328125 36.28515625 C-0.46523438 35.55167969 -0.29765625 34.81820312 -0.125 34.0625 C0.03742187 33.33160156 0.19984375 32.60070313 0.3671875 31.84765625 C1 30 1 30 3 29 C3.93845254 27.17712703 4.80435092 25.31635447 5.625 23.4375 C6.07101563 22.42558594 6.51703125 21.41367187 6.9765625 20.37109375 C7.31429687 19.58863281 7.65203125 18.80617188 8 18 C8.66 18 9.32 18 10 18 C10 16.35 10 14.7 10 13 C11.32 12.67 12.64 12.34 14 12 C14.12375 11.443125 14.2475 10.88625 14.375 10.3125 C15.05976855 7.77885636 15.99133763 5.42078968 17 3 C14.69 3 12.38 3 10 3 C10 2.67 10 2.34 10 2 C6.7 1.67 3.4 1.34 0 1 C0 0.67 0 0.34 0 0 Z " fill="#4FB86C" transform="translate(44,4)"/>
<path d="M0 0 C3.70129644 0.38961015 5.61879622 1.11749016 8 4 C8.33 2.68 8.66 1.36 9 0 C9.66 0 10.32 0 11 0 C11 3.3 11 6.6 11 10 C7.70303895 11.09898702 6.59505097 10.87124444 3.3125 10.0625 C2.50425781 9.86785156 1.69601563 9.67320313 0.86328125 9.47265625 C0.24839844 9.31667969 -0.36648437 9.16070312 -1 9 C-1.09765625 2.84765625 -1.09765625 2.84765625 -1 1 C-0.67 0.67 -0.34 0.34 0 0 Z " fill="#5AA150" transform="translate(38,60)"/>
<path d="M0 0 C1.11346788 2.80033839 1.03510273 3.90143703 0.00390625 6.796875 C-0.47175781 7.77140625 -0.94742188 8.7459375 -1.4375 9.75 C-1.91058594 10.73484375 -2.38367187 11.7196875 -2.87109375 12.734375 C-3.24363281 13.48203125 -3.61617187 14.2296875 -4 15 C-4.99 15 -5.98 15 -7 15 C-7.061875 15.66 -7.12375 16.32 -7.1875 17 C-8.30378495 21.1216675 -10.33761566 24.65750502 -13 28 C-13.66 28 -14.32 28 -15 28 C-11.23528184 18.11982417 -5.35544028 9.07889727 0 0 Z " fill="#70D267" transform="translate(63,9)"/>
<path d="M0 0 C0.66 0.33 1.32 0.66 2 1 C1.67 1.99 1.34 2.98 1 4 C0.34 4 -0.32 4 -1 4 C-0.87625 5.0828125 -0.87625 5.0828125 -0.75 6.1875 C-1.07455108 9.83869967 -2.64548079 11.27758716 -5 14 C-5 14.66 -5 15.32 -5 16 C-5.66 16 -6.32 16 -7 16 C-7.061875 16.70125 -7.12375 17.4025 -7.1875 18.125 C-8.29201202 22.0332733 -10.28230992 24.00357248 -13 27 C-13.99 26.67 -14.98 26.34 -16 26 C-15.34 26 -14.68 26 -14 26 C-13.59225342 24.91972534 -13.59225342 24.91972534 -13.17626953 23.81762695 C-12.01655438 21.03965423 -10.68271053 18.52427464 -9.1796875 15.91796875 C-8.64472656 14.98662109 -8.10976563 14.05527344 -7.55859375 13.09570312 C-7.00300781 12.13599609 -6.44742188 11.17628906 -5.875 10.1875 C-5.31167969 9.20845703 -4.74835937 8.22941406 -4.16796875 7.22070312 C-2.78155585 4.81210445 -1.39214945 2.40528605 0 0 Z " fill="#4CA488" transform="translate(53,7)"/>
<path d="M0 0 C3.63 0 7.26 0 11 0 C11.33 1.32 11.66 2.64 12 4 C9.69 3.67 7.38 3.34 5 3 C5.33 4.65 5.66 6.3 6 8 C6.66 8 7.32 8 8 8 C8.66 9.65 9.32 11.3 10 13 C10.33 13 10.66 13 11 13 C11 14.65 11 16.3 11 18 C7.8411676 14.28907079 5.51404508 10.49789353 3.25 6.1875 C2.63640625 5.02605469 2.0228125 3.86460938 1.390625 2.66796875 C0.93171875 1.78753906 0.4728125 0.90710938 0 0 Z " fill="#265C4B" transform="translate(21,5)"/>
<path d="M0 0 C6.93 0 13.86 0 21 0 C21 0.33 21 0.66 21 1 C17.7 1 14.4 1 11 1 C10.67 1.66 10.34 2.32 10 3 C7.9375 3.625 7.9375 3.625 6 4 C6 5.98 6 7.96 6 10 C2.79782751 7.86521834 1.72714741 6.37204971 0 3 C0 2.01 0 1.02 0 0 Z " fill="#56B76D" transform="translate(10,4)"/>
<path d="M0 0 C3.40024521 -0.35040695 6.61342582 -0.530811 10 0 C14 4.38095238 14 4.38095238 14 8 C14.99 7.67 15.98 7.34 17 7 C17.144375 6.360625 17.28875 5.72125 17.4375 5.0625 C18 3 18 3 20.0625 1.75 C20.701875 1.5025 21.34125 1.255 22 1 C21.32902328 5.19360449 19.1441606 8.40334352 17 12 C16.34 12 15.68 12 15 12 C14.1019812 10.3776775 13.2564786 8.72612319 12.4375 7.0625 C10.31349407 3.18824318 10.31349407 3.18824318 6.60546875 1.11328125 C4.3580322 0.89738577 2.24972044 0.83002112 0 1 C0 0.67 0 0.34 0 0 Z " fill="#82C172" transform="translate(22,3)"/>
<path d="M0 0 C0.99 0.33 1.98 0.66 3 1 C3.33 2.65 3.66 4.3 4 6 C6.10232344 3.1315587 6.10232344 3.1315587 7 0 C7.66 0 8.32 0 9 0 C8.01 3.96 7.02 7.92 6 12 C5.01 11.67 4.02 11.34 3 11 C2.05078125 8.49609375 2.05078125 8.49609375 1.3125 5.4375 C1.06113281 4.42558594 0.80976563 3.41367187 0.55078125 2.37109375 C0.36902344 1.58863281 0.18726562 0.80617187 0 0 Z " fill="#32792E" transform="translate(20,56)"/>
<path d="M0 0 C0.33 0 0.66 0 1 0 C1.4375 3.125 1.4375 3.125 1 7 C-1.06581634 9.38682039 -3.41608882 11.20049043 -6 13 C-6.33 12.34 -6.66 11.68 -7 11 C-5.6015625 8.3984375 -5.6015625 8.3984375 -3.625 5.375 C-2.97789063 4.37210938 -2.33078125 3.36921875 -1.6640625 2.3359375 C-1.11492188 1.56507812 -0.56578125 0.79421875 0 0 Z " fill="#6BD864" transform="translate(47,37)"/>
<path d="M0 0 C1.67542976 0.28604898 3.34385343 0.61781233 5 1 C5 1.99 5 2.98 5 4 C3.68 4 2.36 4 1 4 C1 4.66 1 5.32 1 6 C2.32 6 3.64 6 5 6 C5 6.66 5 7.32 5 8 C3.33388095 8.042721 1.66617115 8.04063832 0 8 C-1 7 -1 7 -1.125 4 C-1 1 -1 1 0 0 Z " fill="#3C7C38" transform="translate(38,60)"/>
<path d="M0 0 C1.875 0.6875 1.875 0.6875 4 2 C4.72159424 3.64363134 5.39351421 5.31050386 6 7 C6.66 7.33 7.32 7.66 8 8 C8.59355614 10.64860427 8.74209269 13.29197322 9 16 C6.75683948 13.11593648 4.84509991 10.15204569 3 7 C2.443125 6.113125 1.88625 5.22625 1.3125 4.3125 C0 2 0 2 0 0 Z " fill="#50B86D" transform="translate(26,32)"/>
<path d="M0 0 C0.66 0 1.32 0 2 0 C2 1.98 2 3.96 2 6 C2.99 6 3.98 6 5 6 C5 4.02 5 2.04 5 0 C5.66 0 6.32 0 7 0 C7.125 2.875 7.125 2.875 7 6 C6.34 6.66 5.68 7.32 5 8 C2.375 7.625 2.375 7.625 0 7 C0 4.69 0 2.38 0 0 Z " fill="#3D7E38" transform="translate(29,60)"/>
<path d="M0 0 C1.37562854 1.28965176 2.70766393 2.62689293 4 4 C4 4.66 4 5.32 4 6 C4.66 6 5.32 6 6 6 C6.433125 4.7934375 6.433125 4.7934375 6.875 3.5625 C8 1 8 1 10 0 C9.67 2.31 9.34 4.62 9 7 C6.36 7 3.72 7 1 7 C0.67 4.69 0.34 2.38 0 0 Z " fill="#335848" transform="translate(33,9)"/>
<path d="M0 0 C0.4125 0.556875 0.825 1.11375 1.25 1.6875 C2.51049933 3.35315983 3.83129031 4.97379722 5.1875 6.5625 C7 9 7 9 7 12 C5.1875 11.8125 5.1875 11.8125 3 11 C0.07099943 7.33874929 -0.32215416 4.6175429 0 0 Z " fill="#77D369" transform="translate(25,32)"/>
<path d="M0 0 C0.66 0 1.32 0 2 0 C0.23570801 4.97209562 -2.3939166 9.43438061 -5 14 C-5.33 14 -5.66 14 -6 14 C-5.67 11.69 -5.34 9.38 -5 7 C-4.34 7 -3.68 7 -3 7 C-2.690625 6.030625 -2.38125 5.06125 -2.0625 4.0625 C-1 1 -1 1 0 0 Z " fill="#255A56" transform="translate(47,14)"/>
<path d="M0 0 C4.62 0 9.24 0 14 0 C14 0.33 14 0.66 14 1 C9.126739 2.5912689 5.19209404 3.21192221 0 3 C0 2.01 0 1.02 0 0 Z " fill="#79D858" transform="translate(16,0)"/>
<path d="M0 0 C0.66 0 1.32 0 2 0 C2.28875 1.11375 2.5775 2.2275 2.875 3.375 C3.69241329 7.00291092 3.69241329 7.00291092 6 9 C4.35 8.67 2.7 8.34 1 8 C0.67 5.36 0.34 2.72 0 0 Z " fill="#78CB67" transform="translate(20,60)"/>
<path d="M0 0 C0.99 0 1.98 0 3 0 C2.25 5.75 2.25 5.75 0 8 C-0.38063221 5.6739143 -0.71269945 3.33944736 -1 1 C-0.67 0.67 -0.34 0.34 0 0 Z " fill="#76C36B" transform="translate(24,56)"/>
<path d="M0 0 C0.33 0 0.66 0 1 0 C1 2.31 1 4.62 1 7 C0.01 6.67 -0.98 6.34 -2 6 C-2 5.34 -2 4.68 -2 4 C-3.65 3.67 -5.3 3.34 -7 3 C-5.1875 1.9375 -5.1875 1.9375 -3 1 C-2.01 1.33 -1.02 1.66 0 2 C0 1.34 0 0.68 0 0 Z " fill="#6FB166" transform="translate(46,62)"/>
<path d="M0 0 C0.99 0 1.98 0 3 0 C3 0.66 3 1.32 3 2 C4.32 2.66 5.64 3.32 7 4 C4.39417629 4.93065133 3.35801776 5.14917407 0.75 4.0625 C0.1725 3.711875 -0.405 3.36125 -1 3 C-0.67 2.01 -0.34 1.02 0 0 Z " fill="#6BBB53" transform="translate(47,56)"/>
<path d="M0 0 C2.79872437 2.52788007 4.45773019 4.20411134 5 8 C4.01 8 3.02 8 2 8 C0.74335022 5.09399739 0 3.20395416 0 0 Z " fill="#70D46E" transform="translate(20,24)"/>
<path d="M0 0 C3.18772993 2.12515329 4.24920753 3.66515721 6 7 C6 7.66 6 8.32 6 9 C5.01 9 4.02 9 3 9 C0 3.375 0 3.375 0 0 Z " fill="#6FD26B" transform="translate(10,7)"/>
<path d="M0 0 C2.52588702 2.36292656 3.88820837 3.66462511 5 7 C4.01 7 3.02 7 2 7 C2 6.01 2 5.02 2 4 C1.34 4 0.68 4 0 4 C0 2.68 0 1.36 0 0 Z " fill="#4CA588" transform="translate(24,12)"/>
<path d="M0 0 C1.32 0 2.64 0 4 0 C4 1.32 4 2.64 4 4 C2.68 3.67 1.36 3.34 0 3 C0 2.01 0 1.02 0 0 Z " fill="#9BE17F" transform="translate(72,0)"/>
</svg>
